<?xml version="1.0" encoding="UTF-8"?><svg id="a" xmlns="http://www.w3.org/2000/svg" viewBox="0 0 237 133.99"><defs><style>.b{fill:#fff;}</style></defs><path class="b" d="M56.97,31.83h26.2c.41,.06,.61,.28,.61,.66v32.5c0,.44-.2,.66-.61,.66h-2.87v1.6c0,.22-.11,.33-.33,.33,.22,.41,.33,.72,.33,.94,.85,0,1.27-.11,1.27-.33l2.21,.33h4.47c.31,0,.63,.31,.94,.94,0,.44-.2,.66-.61,.66h-4.14l-1.6,.33v6.07c0,.41-.22,.61-.66,.61h-4.75l-.33,1.6v4.14c.06,.44,.27,.66,.61,.66h6.4v8.94c0,.41-.42,.61-1.27,.61v1.27h5.08c.44,.06,.66,.28,.66,.66v4.47c0,.41-.22,.61-.66,.61h-3.15c-.5,0-.94,.11-1.32,.33-.35-.22-.77-.33-1.27-.33-.28,0-.6,.53-.94,1.6,.09,.66,.63,1.41,1.6,2.26v2.87h2.21c.44,.06,.66,.27,.66,.61,0,.31-.31,.64-.94,.99h-5.46v.61l2.26,1.27v7.34c0,.44-.22,.66-.66,.66h-1.6c-.22,0-.33-.11-.33-.33l-.61,.33h-11.48c-1.82,0-4.48-.11-8-.33v-8.28l-1.27-.33c-.41,.22-.72,.33-.94,.33v-1.27h.61c1.13,0,2.95-.11,5.46-.33v-.66c0-.41-.22-.61-.66-.61l-.66,.33c-.91,0-1.43-1.29-1.55-3.86-.75,0-1.19-.96-1.32-2.87l-.61-.33H24.14c-1.16,0-2.65-.09-4.47-.28-.38,.19-.8,.28-1.27,.28l-.33-.61c1.69-2.82,2.54-4.31,2.54-4.47,0-.44-.2-.66-.61-.66h-4.14c-.44,0-.66-.2-.66-.61,1.76-.5,2.93-1.46,3.53-2.87,3.51-7.46,6.05-12.04,7.62-13.73h3.86c1.44,0,2.82-1.91,4.14-5.74l1.27-1.27h5.41c.44,0,.66-.22,.66-.66v-.61h-.33c-4.92-.22-7.48-.33-7.67-.33,0-.22-.09-.33-.28-.33,.56-1.44,1.19-2.4,1.88-2.87h3.2c3.98-7.06,9.3-16.95,15.94-29.68,.44-1.32,1.29-2.59,2.54-3.81Zm-26.43,37.02h.61v.33c0,.28-.31,.6-.94,.94-.44,0-.66-.22-.66-.66l.99-.61Zm22.01,8.28h-3.86c-1.47,0-3.07,2.13-4.8,6.4h10.86v-6.07l.33-.66,1.6,.33h1.27l2.21-.33v-6.35l-1.6-.33h-.61c-1.63,0-2.92,1.69-3.86,5.08-.82,1.29-1.33,1.93-1.55,1.93Zm1.55,30.95c.44,.06,.66,.27,.66,.61v.33c0,.44-.22,.66-.66,.66h-.28c-.44,0-.66-.22-.66-.66,0-.28,.31-.6,.94-.94Zm.66-39.88c.22,0,.33,.11,.33,.33l.61-.33c.38,.22,.8,.33,1.27,.33l.33-.66v-2.21h-.33c-1.25,0-1.99,.85-2.21,2.54Zm5.41-4.47v1.6h.33c.44,0,.66-.2,.66-.61v-.99h-.99Zm2.59,5.74v.33h.94c.47,0,.89,.11,1.27,.33,.38-.22,.8-.33,1.27-.33v-.33c0-.41-.2-.61-.61-.61h-2.26c-.41,.06-.61,.27-.61,.61Z"/><path class="b" d="M125.41,31.83c7.65,.63,11.48,1.46,11.48,2.49-.31,.19-.93,.28-1.83,.28,6.99,5.17,11.02,9.74,12.09,13.69,1.66,2.35,3.01,6.18,4.04,11.48,.22,2.48,.83,3.71,1.83,3.71,1.66,0,2.49,.61,2.49,1.83v2.16c0,.44-.2,.66-.61,.66-.85,0-1.27-.11-1.27-.33l-2.16,.33h-3.1v.61l2.16,.28c.47,0,.89-.09,1.27-.28,2.26,.25,3.39,.56,3.39,.94,.41-.22,.72-.33,.94-.33l.61,.33c.38-.22,.8-.33,1.27-.33,.28,0,.6,.31,.94,.94v.28c0,.31-.31,.63-.94,.94h-3.1v6.21c-.88,10.29-2.02,16.29-3.43,18.01h-5.88v.89c1.25,0,1.88,.42,1.88,1.27,.81,0,1.22,.31,1.22,.94-3.32,8.09-8.29,13.67-14.91,16.74-3.14,1.63-7.48,2.45-13.03,2.45h-.28c-12.13,0-20.51-3.4-25.12-10.21-2.04-1.85-3.9-5.06-5.6-9.64-.63,0-1.66-.52-3.1-1.55-1.25,0-1.88-.2-1.88-.61l.66-.28h2.16l2.16-.33v.33c.41-.22,.72-.33,.94-.33-1.88-6.93-2.82-12.1-2.82-15.52,1.25-.25,1.88-.56,1.88-.94v-1.83c-.22-.63-.85-.94-1.88-.94v-4.33c.06-.41,.27-.61,.61-.61h2.49c.22,0,.33,.09,.33,.28,.41-.19,.72-.28,.94-.28v-.94c0-.41-.22-.61-.66-.61h-3.1l-.89-.66h-4.99c-.41,0-.61-.2-.61-.61v-.28c.94,0,1.57-.11,1.88-.33l.61,.33,.61-.33c.22,0,.33,.11,.33,.33,2.66,0,4-.52,4-1.55,.22-.78,.33-1.72,.33-2.82v-.28h-2.49c-.41,0-.61-.22-.61-.66,.81-3.92,1.85-7.84,3.1-11.76l3.72-7.15c5.05-6.4,9.8-9.59,14.25-9.59,6.05-1.66,11.95-2.49,17.68-2.49Zm-16.74,31.65h2.16c.31,0,.63,.3,.94,.89-.16,2.51-.56,3.76-1.22,3.76h-2.16c-.47,0-.89-.11-1.27-.33-2.07,.22-3.1,.53-3.1,.94,1.25,0,1.88,.2,1.88,.61,.81-.16,1.22-.36,1.22-.61,2.7,.25,4.04,.56,4.04,.94l.61-.33h1.55c.31,0,.72,.41,1.22,1.22,0,.31-.3,.63-.89,.94h-3.1c-.41,.06-.61,.27-.61,.61v3.43c1.22,.79,1.83,1.3,1.83,1.55v1.83c-1.03,.63-1.55,1.14-1.55,1.55,0,5.96,1.03,10.82,3.1,14.58l-.94,.66h-4.94v.28c0,.41,1.03,.72,3.1,.94,0,.72,.92,1.13,2.78,1.22,1.88,2.48,3.95,3.72,6.21,3.72,2.73-.6,4.69-1.83,5.88-3.72-1.1-1.03-1.82-1.55-2.16-1.55-.41,0-.61-.2-.61-.61l.61-.28h3.1c.47,0,.88-.11,1.22-.33l.66,.33c2.16,0,3.72-5.8,4.66-17.4v-5.55c-.22-.75-.33-1.18-.33-1.27l.61-.28h3.72v-.94c0-.41-.2-.61-.61-.61h-2.49c-.16,0-.97-.22-2.45-.66h-4.04c-.41,0-.61-.2-.61-.61l.28-.61c.47,0,.89,.11,1.27,.33,1.76-.22,3.2-.33,4.33-.33h.94v-.94c0-2.26-.52-3.39-1.55-3.39-1.88,0-2.82-1.46-2.82-4.37-1.76-5.42-4.03-8.83-6.82-10.21-1.76-.63-2.68-.94-2.77-.94-5.24,0-8.86,5.17-10.87,15.52Zm12.42,33.49l.33,.61-.66,.33h-.28v-.33c.06-.41,.27-.61,.61-.61Zm4.04-28.83l.28,.61-.61,.28-.28-.61,.61-.28Zm.61-18.95v.33h.61v-.33h-.61Z"/><path class="b" d="M192.2,31.83h26.2c.41,.06,.61,.28,.61,.66v32.5c0,.44-.2,.66-.61,.66h-2.87v1.6c0,.22-.11,.33-.33,.33,.22,.41,.33,.72,.33,.94,.85,0,1.27-.11,1.27-.33l2.21,.33h4.47c.31,0,.63,.31,.94,.94,0,.44-.2,.66-.61,.66h-4.14l-1.6,.33v6.07c0,.41-.22,.61-.66,.61h-4.75l-.33,1.6v4.14c.06,.44,.27,.66,.61,.66h6.4v8.94c0,.41-.42,.61-1.27,.61v1.27h5.08c.44,.06,.66,.28,.66,.66v4.47c0,.41-.22,.61-.66,.61h-3.15c-.5,0-.94,.11-1.32,.33-.35-.22-.77-.33-1.27-.33-.28,0-.6,.53-.94,1.6,.09,.66,.63,1.41,1.6,2.26v2.87h2.21c.44,.06,.66,.27,.66,.61,0,.31-.31,.64-.94,.99h-5.46v.61l2.26,1.27v7.34c0,.44-.22,.66-.66,.66h-1.6c-.22,0-.33-.11-.33-.33l-.61,.33h-11.48c-1.82,0-4.48-.11-8-.33v-8.28l-1.27-.33c-.41,.22-.72,.33-.94,.33v-1.27h.61c1.13,0,2.95-.11,5.46-.33v-.66c0-.41-.22-.61-.66-.61l-.66,.33c-.91,0-1.43-1.29-1.55-3.86-.75,0-1.19-.96-1.32-2.87l-.61-.33h-33.82c-1.16,0-2.65-.09-4.47-.28-.38,.19-.8,.28-1.27,.28l-.33-.61c1.69-2.82,2.54-4.31,2.54-4.47,0-.44-.2-.66-.61-.66h-4.14c-.44,0-.66-.2-.66-.61,1.76-.5,2.93-1.46,3.53-2.87,3.51-7.46,6.05-12.04,7.62-13.73h3.86c1.44,0,2.82-1.91,4.14-5.74l1.27-1.27h5.41c.44,0,.66-.22,.66-.66v-.61h-.33c-4.92-.22-7.48-.33-7.67-.33,0-.22-.09-.33-.28-.33,.56-1.44,1.19-2.4,1.88-2.87h3.2c3.98-7.06,9.3-16.95,15.94-29.68,.44-1.32,1.29-2.59,2.54-3.81Zm-26.43,37.02h.61v.33c0,.28-.31,.6-.94,.94-.44,0-.66-.22-.66-.66l.99-.61Zm22.01,8.28h-3.86c-1.47,0-3.07,2.13-4.8,6.4h10.86v-6.07l.33-.66,1.6,.33h1.27l2.21-.33v-6.35l-1.6-.33h-.61c-1.63,0-2.92,1.69-3.86,5.08-.82,1.29-1.33,1.93-1.55,1.93Zm1.55,30.95c.44,.06,.66,.27,.66,.61v.33c0,.44-.22,.66-.66,.66h-.28c-.44,0-.66-.22-.66-.66,0-.28,.31-.6,.94-.94Zm.66-39.88c.22,0,.33,.11,.33,.33l.61-.33c.38,.22,.8,.33,1.27,.33l.33-.66v-2.21h-.33c-1.25,0-1.99,.85-2.21,2.54Zm5.41-4.47v1.6h.33c.44,0,.66-.2,.66-.61v-.99h-.99Zm2.59,5.74v.33h.94c.47,0,.89,.11,1.27,.33,.38-.22,.8-.33,1.27-.33v-.33c0-.41-.2-.61-.61-.61h-2.26c-.41,.06-.61,.27-.61,.61Z"/></svg>