<?xml version="1.0" encoding="UTF-8"?><svg id="a" xmlns="http://www.w3.org/2000/svg" viewBox="0 0 237 112"><defs><style>.b{fill:#fff;}</style></defs><path class="b" d="M39.9,19.97h23.72c.15,0,.31,.16,.49,.49v5.7c0,.15,.16,.31,.49,.49h.67c.26,0,.49-.06,.69-.17,.54,.15,.81,.31,.81,.49v.34c0,.21-.11,.32-.32,.32h-.84v.84c0,.23-.12,.34-.35,.34h-11.52c-1.17,0-2.94,.06-5.33,.17v1.5c.03,.21,.14,.32,.32,.32h1.5c.23,.03,.35,.15,.35,.35v7.17h14.52c.21,.03,.32,.14,.32,.32v2.51c0,.21-.61,.38-1.82,.49l-.35-.17-.99,.17c-.23-.12-.4-.17-.52-.17l-.17,.84v2.84l.17,1.68-.49,.35h-14.2c0,.38-.39,.6-1.16,.67l-1.01-.17h-.32c-.23,.03-.35,.15-.35,.35v.15h1.01l1.68,.17v5.52c0,.59,.33,.92,.99,.99,0,.25,.06,.47,.17,.67-.12,.2-.17,.42-.17,.67v.17h15.88c.21,0,.38,.56,.49,1.68h2.49c.23,.03,.35,.14,.35,.32,0,.23-.12,.35-.35,.35h-1.82l-.84,.17v6.34h-27.37c-.12,0-.17-.06-.17-.17l-.35,.17h-.99c-.16,0-.34-.17-.52-.49v-.35c0-.12,.06-.17,.17-.17l-.17-.32v-4.02l-.84-.15h-1.48c-.23,0-.35-.12-.35-.34v-.35c.03-.21,.15-.32,.35-.32,1.86-.12,3.3-.17,4.34-.17h.67v-.32l-1.68-.17h-.67c-.23,0-.35-.16-.35-.49l.17-.34c-.11-.2-.17-.42-.17-.67,0-.15,.34-.31,1.01-.49,.12-.2,.17-.43,.17-.69,0-.48-.39-.75-1.18-.81v-5.7l.17-.32-.32-.17h-2.17c-.23,0-.35-.11-.35-.32,.03-.23,.15-.35,.35-.35h2c.21,0,.32-.11,.32-.34v-5.5c0-.23,.17-.34,.52-.34s1.4-.05,3.16-.15v-10.18c0-.35-.61-.52-1.82-.52h-.35v-2.66l1.18-.67v-.34c0-.21-.12-.32-.35-.32h-2c-.23,0-.35-.11-.35-.34v-5.84l.17-.32c2.24-.12,3.9-.17,5.01-.17Zm-6.34,20.05h.84c.21,.03,.32,.14,.32,.32v.84c0,.21-.11,.32-.32,.32h-.84c-.23,0-.35-.11-.35-.32v-.84c.05-.21,.16-.32,.35-.32Zm6.02,18.52h1.5v-.32h-1.18c-.21,.03-.32,.14-.32,.32Zm18.02,.17v.67c.03,.23,.15,.34,.35,.34h2.32c0-.13,.06-.3,.17-.52-.12-.21-.17-.38-.17-.49h-2.66Z"/><path class="b" d="M69.22,19.97c.21,0,.32,.06,.32,.17,1.68-.12,2.91-.17,3.7-.17h11.69c4.24,0,7.08,.39,8.53,1.16,1,.3,1.62,.63,1.85,1.01-.12,.2-.17,.42-.17,.67,1.74,.84,3.25,2.68,4.51,5.52,.79,2.37,1.18,4.15,1.18,5.35,0,.41-.16,1.75-.49,4.02,.66,0,.99,.12,.99,.35-1.27,3.47-3.27,6.03-6.02,7.69l-2.52,.99v.17c.26,.25,.88,1.14,1.85,2.69-.36,.21-.64,.32-.84,.32l.17,.34v.17c-2.02,.1-3.36,.15-4.02,.15v.17c.03,.23,.15,.34,.35,.34h4.17l1.5,1.83c1.1,0,1.82,.56,2.17,1.68v.17c-.56,0-.84,.12-.84,.34,3.47,4.98,5.2,7.55,5.2,7.69-.44,.08-.67,.19-.67,.32,.77,1.17,1.16,1.84,1.16,2.02l-.32,.15h-8.38c-.94,0-2.44-.05-4.51-.15-.89-1.27-1.33-1.94-1.33-2.02,.18-.12,.46-.17,.84-.17v-.15c-3.24-4.92-4.86-7.59-4.86-8.04h.67v-.34c-.35-1.1-1.01-1.65-2-1.65-.87-1.12-1.55-1.68-2.02-1.68h-3.01v.84c0,.1-.05,.15-.15,.15l.15,.35v7.69h1.85c.23,.03,.35,.15,.35,.35,0,.21-.12,.32-.35,.32h-1.85c0,.56-.05,.84-.15,.84l.15,.35v2c0,.25-.05,.47-.15,.67,.1,.21,.15,.39,.15,.52l-.32,.15h-6.85c-1.12,0-2.79-.05-5.03-.15v-4.02c.03-.23,.15-.34,.35-.34h1.82v-.49h-1.82c-.23,0-.35-.12-.35-.35v-8.68l-.84-.17h-3.33c-.23,0-.35-.11-.35-.34l.35-.17c2.78-.05,4.17-.16,4.17-.32,0-.34,.12-.52,.35-.52,.21,.12,.38,.17,.49,.17l.17-.32v-11.39c.03-.21,.14-.32,.32-.32h.84l.17-1.01c-.21-.12-.38-.17-.49-.17-.99,.12-1.55,.17-1.68,.17,0-.89-.44-1.33-1.33-1.33v-.84l1.16-.67v-11.22l1.01-.67v-1.68c.03-.21,.14-.32,.32-.32h1.18c.38,0,.66-.06,.84-.17Zm-.67,16.89v.17h.32v-.17h-.32Zm.84,0v.17h.32v-.17h-.32Zm4.17,13.71v.17c.03,.23,.15,.34,.35,.34h3.01c.21,0,.32-.11,.32-.34v-.17h-3.67Zm4.51-21.72c0,.1-.05,.15-.15,.15,.1,1.12,.15,1.96,.15,2.51v1.01c0,.12-.05,.17-.15,.17l.15,.32v.17c0,1-.44,1.5-1.33,1.5v1.01c.89,.07,1.33,.23,1.33,.49h-.15c.1,.21,.15,.38,.15,.49h4.02v.34h-1.5l-.67,.84h-.84v1.68h5.18c2.25,0,3.76-.56,4.54-1.68,1.1,0,1.65-.39,1.65-1.18h-1.5l-.32-.15c.21-.77,.32-1.45,.32-2.02v-1.33c0-1.17-1-2.45-3.01-3.85-.25-.23-1.36-.39-3.33-.49l-.35,.15-.35-.15c-.1,0-.15,.05-.15,.15-.39-.1-.62-.15-.69-.15-.97,.1-1.52,.15-1.65,.15-.62-.1-1.08-.15-1.36-.15Zm.52,21.06l-.35-.17c0,.23-.11,.35-.32,.35,.1,.21,.15,.38,.15,.49,1.12-.1,1.96-.15,2.52-.15h.17l.32,.15,.69-1.16c-.44-1-.72-1.5-.84-1.5h-1.5c-.23,0-.4,.67-.52,2h-.32Zm8.36,13.22h.32c0,.18,.11,.4,.35,.67v.35c-.15-.02-.37-.3-.67-.84v-.17Zm1.16,1.68h.17v.35h-.17v-.35Zm12.9-28.11h.49v.34h-.49v-.34Zm1.16,0h.52v.34h-.52v-.34Zm.84,0h1.5v.34h-1.5v-.34Z"/><path class="b" d="M107.29,19.97c.21,0,.32,.06,.32,.17,1.68-.12,2.91-.17,3.7-.17h11.69c4.24,0,7.08,.39,8.53,1.16,1,.3,1.62,.63,1.85,1.01-.12,.2-.17,.42-.17,.67,1.74,.84,3.25,2.68,4.51,5.52,.79,2.37,1.18,4.15,1.18,5.35,0,.41-.16,1.75-.49,4.02,.66,0,.99,.12,.99,.35-1.27,3.47-3.27,6.03-6.02,7.69l-2.52,.99v.17c.26,.25,.88,1.14,1.85,2.69-.36,.21-.64,.32-.84,.32l.17,.34v.17c-2.02,.1-3.36,.15-4.02,.15v.17c.03,.23,.15,.34,.35,.34h4.17l1.5,1.83c1.1,0,1.82,.56,2.17,1.68v.17c-.56,0-.84,.12-.84,.34,3.47,4.98,5.2,7.55,5.2,7.69-.44,.08-.67,.19-.67,.32,.77,1.17,1.16,1.84,1.16,2.02l-.32,.15h-8.38c-.94,0-2.44-.05-4.51-.15-.89-1.27-1.33-1.94-1.33-2.02,.18-.12,.46-.17,.84-.17v-.15c-3.24-4.92-4.86-7.59-4.86-8.04h.67v-.34c-.35-1.1-1.01-1.65-2-1.65-.87-1.12-1.55-1.68-2.02-1.68h-3.01v.84c0,.1-.05,.15-.15,.15l.15,.35v7.69h1.85c.23,.03,.35,.15,.35,.35,0,.21-.12,.32-.35,.32h-1.85c0,.56-.05,.84-.15,.84l.15,.35v2c0,.25-.05,.47-.15,.67,.1,.21,.15,.39,.15,.52l-.32,.15h-6.85c-1.12,0-2.79-.05-5.03-.15v-4.02c.03-.23,.15-.34,.35-.34h1.82v-.49h-1.82c-.23,0-.35-.12-.35-.35v-8.68l-.84-.17h-3.33c-.23,0-.35-.11-.35-.34l.35-.17c2.78-.05,4.17-.16,4.17-.32,0-.34,.12-.52,.35-.52,.21,.12,.38,.17,.49,.17l.17-.32v-11.39c.03-.21,.14-.32,.32-.32h.84l.17-1.01c-.21-.12-.38-.17-.49-.17-.99,.12-1.55,.17-1.68,.17,0-.89-.44-1.33-1.33-1.33v-.84l1.16-.67v-11.22l1.01-.67v-1.68c.03-.21,.14-.32,.32-.32h1.18c.38,0,.66-.06,.84-.17Zm-.67,16.89v.17h.32v-.17h-.32Zm.84,0v.17h.32v-.17h-.32Zm4.17,13.71v.17c.03,.23,.15,.34,.35,.34h3.01c.21,0,.32-.11,.32-.34v-.17h-3.67Zm4.51-21.72c0,.1-.05,.15-.15,.15,.1,1.12,.15,1.96,.15,2.51v1.01c0,.12-.05,.17-.15,.17l.15,.32v.17c0,1-.44,1.5-1.33,1.5v1.01c.89,.07,1.33,.23,1.33,.49h-.15c.1,.21,.15,.38,.15,.49h4.02v.34h-1.5l-.67,.84h-.84v1.68h5.18c2.25,0,3.76-.56,4.54-1.68,1.1,0,1.65-.39,1.65-1.18h-1.5l-.32-.15c.21-.77,.32-1.45,.32-2.02v-1.33c0-1.17-1-2.45-3.01-3.85-.25-.23-1.36-.39-3.33-.49l-.35,.15-.35-.15c-.1,0-.15,.05-.15,.15-.39-.1-.62-.15-.69-.15-.97,.1-1.52,.15-1.65,.15-.62-.1-1.08-.15-1.36-.15Zm.52,21.06l-.35-.17c0,.23-.11,.35-.32,.35,.1,.21,.15,.38,.15,.49,1.12-.1,1.96-.15,2.52-.15h.17l.32,.15,.69-1.16c-.44-1-.72-1.5-.84-1.5h-1.5c-.23,0-.4,.67-.52,2h-.32Zm8.36,13.22h.32c0,.18,.11,.4,.35,.67v.35c-.15-.02-.37-.3-.67-.84v-.17Zm1.16,1.68h.17v.35h-.17v-.35Zm12.9-28.11h.49v.34h-.49v-.34Zm1.16,0h.52v.34h-.52v-.34Zm.84,0h1.5v.34h-1.5v-.34Z"/><path class="b" d="M166.64,20.04c3.83,0,7.07,.81,9.71,2.44-.2,.1-.41,.15-.64,.15v.32c.39,0,1.9,1.03,4.51,3.08,.64,0,1.29,.21,1.95,.64h1.8l.79,.17v.17c0,.21-.11,.32-.32,.32h-.81c-.1,0-.15-.06-.15-.17-.18,.12-.45,.17-.81,.17v.15c2.45,2.73,4.28,6.4,5.5,11.02l-.47,.32h-3.9v.17c1.59,0,2.52,.05,2.76,.15,.18-.1,.45-.15,.81-.15h.32c.43,0,.64,1.03,.64,3.08,.03,.21,.14,.32,.32,.32h1.63c.1,0,.15,.05,.15,.15l.35-.15h.15c.66,.07,.99,.22,.99,.47,0,3.6-1.03,7.23-3.08,10.88l-.32,.15h-3.08l-.67,.49h-1.6c-.21,.03-.32,.14-.32,.32,1.18,0,1.78,.06,1.78,.17-2.52,4.14-6.4,7.22-11.66,9.22-2.56,.66-4.89,.99-6.98,.99h-1.78c-1.27,0-2.13-.12-2.59-.34-.21,.11-.38,.17-.49,.17-4.75-.81-8.47-2.38-11.17-4.71-2.09-1.76-3.76-3.53-5.03-5.33-.18-.11-.39-.17-.64-.17h-1.45v-.32h1.6c0-.33,.11-.49,.35-.49h2.1l.81-.15c-1.68-3.19-2.6-6.11-2.76-8.75v-.49l.17-.32c.1,0,.15,.06,.15,.17,1.63-.12,2.82-.17,3.58-.17h2.42v-.17c0-.21-.11-.32-.32-.32h-5.82c-.13,0-.4-.38-.81-1.13h-2.76c-.21,0-.32-.11-.32-.32s.44-.38,1.31-.49v-.64c-.11,0-.28-.05-.49-.15-.21,.1-.38,.15-.49,.15-.1-.21-.15-.38-.15-.49,.31-3.75,1.71-7.52,4.19-11.32,.95-1.3,1.82-1.95,2.61-1.95,1.4,0,2.1-.16,2.1-.49-.36-.21-.68-.32-.96-.32h-.17l-.81,.15-.15-.32,.15-.32c-.43,0-.64-.11-.64-.32,.81-.71,2.32-1.73,4.54-3.08h1.78c2.89-1.73,7.11-2.59,12.65-2.59Zm-24.63,23.65h1.78c.21,.03,.32,.14,.32,.32l-.32,.17h-1.78v-.49Zm.96,4.86h.99l.15,.81-.47,.32h-.49c-.21,0-.38-.32-.49-.96l.32-.17Zm10.21-8.26v.32l.99,.67v.32c0,.21-.12,.32-.35,.32h-.79v.49h2.91c.18,0,.35,.38,.49,1.13,2.32,.1,4.04,.15,5.18,.15h1.28v.32c0,.23-.11,.35-.32,.35-.2-.12-.35-.17-.47-.17s-.17,.06-.17,.17l-.81-.17c-.39,0-1.91,.06-4.54,.17v.79c.53,2.65,1.87,5.03,4.04,7.15,1.2,.82,1.8,1.31,1.8,1.46l-.32,.15h-2.27l.15,.32v.17h-.96v.32h1.95c1.92,.54,3.21,.81,3.87,.81s1.65-.16,3.08-.49c0-.21-.11-.32-.32-.32h-.81v-.32h1.78c.11,0,.87-.16,2.27-.49h1.63c.25,0,.46-.05,.64-.15,.21,.1,.38,.15,.49,.15,2.12-.9,4.01-2.9,5.67-5.99,.64-2.17,.96-3.41,.96-3.72v-1.31c0-.18-.53-.34-1.6-.47l-.32,.15h-1.13c-.44,0-.67-1.08-.67-3.23l-.79-.17h-5.52v-.32c1.63-.1,2.82-.15,3.58-.15h2.42v-.17c-1.02-2.88-2.64-5.09-4.86-6.63-2.45-1.51-4.45-2.27-5.99-2.27-4.52,0-8.19,2.32-11.02,6.95-.76,1.91-1.13,3.15-1.13,3.72Zm8.75,6.48h.17c.21,.03,.32,.14,.32,.32v.49c0,.21-.11,.32-.32,.32h-.17c-.21,0-.32-.11-.32-.32v-.49c.03-.21,.14-.32,.32-.32Zm19.92-2.42l-.15,.32v.15h.15c0-.21,.11-.32,.32-.32v-.15h-.32Z"/><path class="b" d="M193.15,19.97c.21,0,.32,.06,.32,.17,1.68-.12,2.91-.17,3.7-.17h11.69c4.24,0,7.08,.39,8.53,1.16,1,.3,1.62,.63,1.85,1.01-.12,.2-.17,.42-.17,.67,1.74,.84,3.25,2.68,4.51,5.52,.79,2.37,1.18,4.15,1.18,5.35,0,.41-.16,1.75-.49,4.02,.66,0,.99,.12,.99,.35-1.27,3.47-3.27,6.03-6.02,7.69l-2.52,.99v.17c.26,.25,.88,1.14,1.85,2.69-.36,.21-.64,.32-.84,.32l.17,.34v.17c-2.02,.1-3.36,.15-4.02,.15v.17c.03,.23,.15,.34,.35,.34h4.17l1.5,1.83c1.1,0,1.82,.56,2.17,1.68v.17c-.56,0-.84,.12-.84,.34,3.47,4.98,5.2,7.55,5.2,7.69-.44,.08-.67,.19-.67,.32,.77,1.17,1.16,1.84,1.16,2.02l-.32,.15h-8.38c-.94,0-2.44-.05-4.51-.15-.89-1.27-1.33-1.94-1.33-2.02,.18-.12,.46-.17,.84-.17v-.15c-3.24-4.92-4.86-7.59-4.86-8.04h.67v-.34c-.35-1.1-1.01-1.65-2-1.65-.87-1.12-1.55-1.68-2.02-1.68h-3.01v.84c0,.1-.05,.15-.15,.15l.15,.35v7.69h1.85c.23,.03,.35,.15,.35,.35,0,.21-.12,.32-.35,.32h-1.85c0,.56-.05,.84-.15,.84l.15,.35v2c0,.25-.05,.47-.15,.67,.1,.21,.15,.39,.15,.52l-.32,.15h-6.85c-1.12,0-2.79-.05-5.03-.15v-4.02c.03-.23,.15-.34,.35-.34h1.82v-.49h-1.82c-.23,0-.35-.12-.35-.35v-8.68l-.84-.17h-3.33c-.23,0-.35-.11-.35-.34l.35-.17c2.78-.05,4.17-.16,4.17-.32,0-.34,.12-.52,.35-.52,.21,.12,.38,.17,.49,.17l.17-.32v-11.39c.03-.21,.14-.32,.32-.32h.84l.17-1.01c-.21-.12-.38-.17-.49-.17-.99,.12-1.55,.17-1.68,.17,0-.89-.44-1.33-1.33-1.33v-.84l1.16-.67v-11.22l1.01-.67v-1.68c.03-.21,.14-.32,.32-.32h1.18c.38,0,.66-.06,.84-.17Zm-.67,16.89v.17h.32v-.17h-.32Zm.84,0v.17h.32v-.17h-.32Zm4.17,13.71v.17c.03,.23,.15,.34,.35,.34h3.01c.21,0,.32-.11,.32-.34v-.17h-3.67Zm4.51-21.72c0,.1-.05,.15-.15,.15,.1,1.12,.15,1.96,.15,2.51v1.01c0,.12-.05,.17-.15,.17l.15,.32v.17c0,1-.44,1.5-1.33,1.5v1.01c.89,.07,1.33,.23,1.33,.49h-.15c.1,.21,.15,.38,.15,.49h4.02v.34h-1.5l-.67,.84h-.84v1.68h5.18c2.25,0,3.76-.56,4.54-1.68,1.1,0,1.65-.39,1.65-1.18h-1.5l-.32-.15c.21-.77,.32-1.45,.32-2.02v-1.33c0-1.17-1-2.45-3.01-3.85-.25-.23-1.36-.39-3.33-.49l-.35,.15-.35-.15c-.1,0-.15,.05-.15,.15-.39-.1-.62-.15-.69-.15-.97,.1-1.52,.15-1.65,.15-.62-.1-1.08-.15-1.36-.15Zm.52,21.06l-.35-.17c0,.23-.11,.35-.32,.35,.1,.21,.15,.38,.15,.49,1.12-.1,1.96-.15,2.52-.15h.17l.32,.15,.69-1.16c-.44-1-.72-1.5-.84-1.5h-1.5c-.23,0-.4,.67-.52,2h-.32Zm8.36,13.22h.32c0,.18,.11,.4,.35,.67v.35c-.15-.02-.37-.3-.67-.84v-.17Zm1.16,1.68h.17v.35h-.17v-.35Zm12.9-28.11h.49v.34h-.49v-.34Zm1.16,0h.52v.34h-.52v-.34Zm.84,0h1.5v.34h-1.5v-.34Z"/></svg>