<?xml version="1.0" encoding="UTF-8"?><svg xmlns="http://www.w3.org/2000/svg" viewBox="0 0 569.8 93.89"><defs><style>.e{fill:#fff;}.f{fill:#e7363c;}</style></defs><g id="a"/><g id="b"><g id="c"><g id="d"><g><g><path class="e" d="M330.57,46.46c-.06-3.26,.53-6.35,1.78-9.26,1.25-2.91,2.96-5.46,5.14-7.63,2.18-2.17,4.74-3.9,7.68-5.18,2.94-1.28,6.08-1.92,9.41-1.92v9.98c-1.92,0-3.73,.37-5.42,1.1-1.7,.74-3.18,1.73-4.46,2.98-1.28,1.25-2.29,2.74-3.02,4.46-.74,1.73-1.1,3.55-1.1,5.47v24h-9.98v-24Z"/><path class="e" d="M466.22,46.46c.06,3.26-.53,6.35-1.78,9.26-1.25,2.91-2.96,5.44-5.14,7.58-2.18,2.15-4.72,3.86-7.63,5.14s-6,1.95-9.26,2.02h-.19c-3.26-.06-6.35-.74-9.26-2.02-2.91-1.28-5.46-2.99-7.63-5.14-2.18-2.14-3.89-4.67-5.14-7.58-1.25-2.91-1.84-6-1.78-9.26V22.46h10.08l-.1,24c0,1.92,.35,3.73,1.06,5.42,.7,1.7,1.68,3.18,2.93,4.46,1.25,1.28,2.72,2.29,4.42,3.02,1.7,.74,3.5,1.1,5.42,1.1s3.82-.37,5.52-1.1c1.7-.74,3.17-1.74,4.42-3.02,1.25-1.28,2.24-2.77,2.98-4.46,.74-1.7,1.1-3.5,1.1-5.42V22.46h9.98v24Z"/><path class="e" d="M516.14,36.96c.58,1.47,1.02,3.01,1.34,4.61,.32,1.6,.48,3.23,.48,4.9v29.66c0,3.52-.69,6.8-2.06,9.84-1.38,3.04-3.25,5.68-5.62,7.92l-7.39-6.82c1.6-1.34,2.88-2.96,3.84-4.85,.96-1.89,1.41-3.92,1.34-6.1l-.1-29.86c0-1.79-.38-3.61-1.15-5.47-.13-.38-.29-.75-.48-1.1-.19-.35-.42-.75-.67-1.2-1.28-1.92-2.96-3.44-5.04-4.56-2.08-1.12-4.37-1.68-6.86-1.68-1.92,0-3.71,.37-5.38,1.1-1.67,.74-3.14,1.74-4.42,3.02-1.28,1.28-2.29,2.77-3.02,4.46-.74,1.7-1.1,3.5-1.1,5.42s.37,3.74,1.1,5.47c.73,1.73,1.74,3.23,3.02,4.51,1.28,1.28,2.75,2.29,4.42,3.02,1.66,.74,3.46,1.1,5.38,1.1,.7,0,1.34-.01,1.92-.05,.58-.03,1.15-.14,1.73-.34l2.3,9.6c-.9,.32-1.84,.54-2.83,.67-.99,.13-2.03,.19-3.12,.19-3.01,0-5.87-.54-8.59-1.63-2.72-1.09-5.15-2.59-7.3-4.51-2.14-1.92-3.9-4.18-5.28-6.77-1.38-2.59-2.22-5.39-2.54-8.4-.13-.58-.19-1.09-.19-1.54v-1.34c0-3.33,.62-6.43,1.87-9.31s2.96-5.41,5.14-7.58,4.72-3.89,7.63-5.14c2.91-1.25,6-1.87,9.26-1.87,2.5,0,4.9,.35,7.2,1.06,2.3,.71,4.43,1.71,6.38,3.02,1.95,1.31,3.68,2.86,5.18,4.66,1.5,1.79,2.7,3.74,3.6,5.86Z"/><path class="e" d="M545.8,60.48c1.92,0,3.73-.37,5.42-1.1,1.69-.74,3.18-1.73,4.46-2.98,1.28-1.25,2.29-2.72,3.02-4.42,.74-1.69,1.1-3.54,1.1-5.52h9.98c0,3.33-.62,6.45-1.87,9.36-1.25,2.91-2.96,5.46-5.14,7.63-2.18,2.18-4.72,3.89-7.63,5.14-2.91,1.25-6.03,1.87-9.36,1.87s-6.45-.62-9.36-1.87c-2.91-1.25-5.46-2.96-7.63-5.14-2.18-2.17-3.89-4.72-5.14-7.63-1.25-2.91-1.87-6.03-1.87-9.36s.62-6.45,1.87-9.36c1.25-2.91,2.96-5.46,5.14-7.63s4.72-3.89,7.63-5.14c2.91-1.25,6.03-1.87,9.36-1.87s6.3,.59,9.12,1.78c2.82,1.18,5.31,2.8,7.49,4.85l.19,.19,6.53,6.72-10.75,10.66h-13.25l10.27-10.56c-1.22-1.09-2.66-1.97-4.32-2.64-1.67-.67-3.42-1.01-5.28-1.01s-3.73,.37-5.42,1.1c-1.7,.74-3.18,1.74-4.46,3.02-1.28,1.28-2.29,2.77-3.02,4.46-.74,1.7-1.1,3.5-1.1,5.42s.37,3.73,1.1,5.42c.73,1.7,1.74,3.18,3.02,4.46,1.28,1.28,2.77,2.29,4.46,3.02,1.7,.74,3.5,1.1,5.42,1.1Z"/></g><g><path class="e" d="M396.37,20.18c.16,.21,.67,.9,1.01,1.95-.3-.7-.68-1.19-.91-1.49-.2-.26-1.27-1.6-2.98-2.27-.04-.02-.58-.23-1.13-.39-.32-.1-.65-.18-.88-.2,0,0-.48-.05-.83-.19-.12-.05-.17-.07-.2-.08h-.01s-.07-.04-.11-.06h0c.14-.04,.35-.09,.62-.09,.17,0,.36,.02,.57,.07,0,0,.07,.02,.18,.05,.2,.05,.53,.15,.82,.24,1.43,.46,2.36,1.09,2.36,1.09,.04,.03,.08,.06,.13,.09h.01c.55,.38,.86,.72,1.01,.9h0c.05,.06,.1,.12,.15,.18,.06,.07,.11,.14,.17,.21Z"/><path class="e" d="M401.09,4.39c-.55,.87-.93,1.45-1.64,2.02-1.68,1.33-3.33,1.03-3.44,1.71-.07,.43,.56,.72,1.17,1.33,1.05,1.06,1.25,2.33,1.63,4.87,.12,.79,.42,2.99,.1,5.86-.02,.2-.05,.4-.08,.61-.17,1.21-.44,2.47-.67,3.04-.05-1.48-.23-3.16-1.19-4.6h0c-1.13-1.7-2.89-2.4-4.54-3.06-.91-.36-1.72-.57-2.3-.69-.02,0-.05-.01-.07-.01-.53-.09-1.62,.21-3.24,.21-1.9,0-2.55-.42-3.86,.05-.4,.14-.57,.27-.98,.3-.86,.07-1.93-.32-2.53-1.25-.09-.13-.67-1.06-.38-2.01,.35-1.16,1.63-1.24,3.51-2.26,3.13-1.7,5.71-4.8,7.07-4.62,.34,.04,.54,.06,.95,.08,.93,.05,1.1,0,1.2-.05,.41-.2,.48-.65,.68-1.14,.5-1.24,1.53-1.94,1.9-2.2,.97-.67,1.9-.8,2.69-.91,.71-.1,1.78-.25,2.1,.25,.23,.36-.05,.85,.19,1.01,.19,.12,.4-.12,.93-.22,.41-.08,1.13-.08,1.33,.25,.08,.12,.15,.4-.52,1.44Z"/><path class="e" d="M387.62,18.57c-.1,.09-.2,.19-.32,.29,.13-.66,.67-1.22,1.42-1.53-.06,.08-.13,.18-.22,.28-.05,.06-.15,.19-.29,.35-.08,.09-.29,.32-.59,.6Z"/><path class="e" d="M392.86,19.19c0,.58-.31,1.11-.81,1.49-.51,.39-1.21,.63-1.99,.63-1.32,0-2.42-.69-2.71-1.63,0,0,0-.01,0-.01,.14-.11,.27-.2,.38-.3,.32-.25,.55-.45,.61-.5,.04-.04,.29-.27,.64-.55,.5-.4,.8-.64,1.11-.78,.08-.04,.15-.07,.24-.09h0c.14-.04,.35-.09,.62-.09,.17,0,.36,.02,.57,.07,0,0,.07,.02,.18,.05,.08,.04,.15,.08,.22,.13,.16,.11,.31,.24,.44,.37,.05,.06,.1,.12,.15,.18,.09,.12,.16,.25,.22,.38,.01,.03,.02,.06,.03,.09,.07,.18,.1,.36,.1,.56Z"/><path class="e" d="M362.67,27.86c-2.67,2.92-5.01,7.04-5.24,6.9-.17-.11,1.02-2.32,2.07-3.98,0,0,2.19-3.47,4.91-6.06,2.23-2.13,11.33-9.4,24-7.88,.2,.02,.4,.05,.6,.08-.04,.07-.1,.15-.16,.23-.03,.04-.07,.1-.13,.18-.06,.08-.13,.18-.22,.28-.05,.06-.15,.19-.29,.35-.08,.09-.29,.32-.59,.6-.1,.09-.2,.19-.32,.29h0c-.12,.11-.26,.23-.43,.35-10.39-1.74-19.56,3.58-24.21,8.65Z"/><path class="e" d="M388.57,19.56c-.28-.07-.56-.13-.85-.19,.32-.25,.55-.45,.61-.5,.04-.04,.29-.27,.64-.55,.5-.4,.8-.64,1.11-.78,.08-.04,.15-.07,.24-.09h0c.14-.04,.35-.09,.62-.09,.17,0,.36,.02,.57,.07,0,0,.07,.02,.18,.05,.2,.05,.53,.15,.82,.24,1.43,.46,2.36,1.09,2.36,1.09,.04,.03,.08,.06,.13,.09h.01c.55,.38,.86,.72,1.01,.9h0c.05,.06,.1,.12,.15,.18,.06,.07,.11,.14,.17,.21,.16,.21,.67,.9,1.01,1.95l.04,.12c.17,.58,.25,1.13,.27,1.61-.36-.27-.73-.53-1.12-.79-1.33-.88-2.83-1.71-4.51-2.39-1.09-.44-2.24-.82-3.48-1.12Z"/><path class="e" d="M414.76,46.73c-.01,1.42-.2,10.1-6.13,17.89-1.55,2.03-3.16,3.58-4.39,4.63-1.96,1.67-5.05,3.86-9.28,5.37-2.29,.82-4.31,1.23-5.84,1.44-1.44,.2-2.67,.27-3.62,.29,0,0-1.21,.02-2.51-.05-.06,0-.2-.01-.38-.02-.17-.01-.38-.03-.56-.05-.15-.01-.38-.04-.67-.07-.91-.11-1.37-.16-1.61-.25-.34-.13-.49-.3-1.01-.79-.8-.76-1.21-1.14-1.63-1.47-.56-.44-2.28-1.67-2.67-2.03-.07-.06-.17-.17-.2-.33-.02-.09,0-.16,.02-.31,.02-.15,.03-.31,.05-.46,.05-.38,.07-.75,.08-.91,.07-.89,.23-3.02,.93-3.2,.36-.1,.61,.43,1.74,1.36,.64,.53,1.23,.91,1.66,1.17,.69,.32,1.74,.73,3.07,.96,2.69,.47,4.81-.09,7.23-.76,3.43-.95,5.82-2.3,6.41-2.64,3.29-1.91,5.38-4.09,6.29-5.12,.8-.9,2.61-3.07,4.1-6.32,1.93-4.21,2.25-7.88,2.33-9.29,.44-7.86-3.08-13.67-3.96-15.06-.4-.63-2.39-3.64-6.03-6.47,0-.13,0-.27,0-.4-.05-1.48-.23-3.16-1.19-4.6,.66,.29,1.3,.62,1.93,.96,5.98,3.24,10.53,8.35,13.09,13.76,.71,1.49,2.81,6.29,2.76,12.78Z"/><path class="e" d="M397.55,25.6c-.25-.08-.54-.23-.8-.48-.16-.15-.74-.69-.65-1.32,.04-.34,.27-.56,.46-.74,.2-.18,.38-.33,.34-.54-.08-.44-.97-.35-1.35-1.07-.17-.34,0-.37-.18-.9-.16-.44-.43-.76-.99-1.41-.23-.27-.35-.38-.5-.49-.08-.05-.67-.47-.97-.27-.09,.06-.13,.17-.16,.25-.02,.06-.03,.1-.04,.09-.02,0,0-.08,.01-.19,.01-.13,.02-.29-.06-.36-.04-.03-.1-.04-.16-.03-.1,.02-.21,.07-.32,.11-.27,.09-.7,.1-1.35-.27-.15,.16-.37,.32-.63,.32-.21,0-.31-.12-.41-.05-.21,.12,.05,.66-.19,.86-.05,.04-.07,.03-.55,.07-.42,.03-.52,.05-.55,.12-.04,.08,.02,.17,.07,.25,.03,.06,.05,.11,.02,.14-.04,.05-.14,0-.41-.02-.06,0-.07,0-.31,0-.09,0-.17,0-.24,0h-.29s-.01,0-.02,0l.02-.02c.14-.11,.27-.2,.38-.3,.32-.25,.55-.45,.61-.5,.04-.04,.29-.27,.64-.55,.5-.4,.8-.64,1.11-.78,.08-.04,.15-.07,.24-.09h0c.14-.04,.35-.09,.62-.09,.17,0,.36,.02,.57,.07,0,0,.07,.02,.18,.05,.2,.05,.53,.15,.82,.24,1.43,.46,2.36,1.09,2.36,1.09,.04,.03,.08,.06,.13,.09h.01c.55,.38,.86,.72,1.01,.9h0c.05,.06,.1,.12,.15,.18,.06,.07,.11,.14,.17,.21,.16,.21,.67,.9,1.01,1.95l.04,.12c.17,.58,.25,1.13,.27,1.61,.04,.76-.07,1.37-.13,1.74Z"/><path class="e" d="M394.88,18.8s.08,.06,.13,.09c-.11-.07-.24-.15-.37-.23-.14-.08-.29-.16-.29-.16-.03-.02-.07-.04-.11-.06-.13-.07-.41-.2-.98-.42-.34-.13-.51-.2-.69-.26-.23-.07-.44-.12-.65-.16-.52-.1-.94-.11-1.15-.11-.06,0-.17,0-.31,.01-.1,0-.23,.02-.36,.03,.08-.04,.15-.07,.24-.09h0c.14-.04,.35-.09,.62-.09,.17,0,.36,.02,.57,.07,0,0,.07,.02,.18,.05,.2,.05,.53,.15,.82,.24,1.43,.46,2.36,1.09,2.36,1.09Z"/><path class="e" d="M396.04,19.79c.05,.05,.1,.11,.15,.17l-.05-.03s-.03-.05-.1-.14Z"/><path class="e" d="M383.09,40.74c-.43,.18-.75,.28-1.15,.44-3.02,1.19-9.86,6.95-12.08,7.7-.72-.2-1.48-.24-2.14-.07-.55,.14-1.36,.52-2.01,.9-.89,.53-1.21,.91-1.87,.95-.77,.06-1.39-.39-1.55-.51-1.87-1.37-1.13-5.38-1.02-5.97,.59-3.19,2.47-5.31,3.22-6.14,.51-.56,.95-.95,1.08-1.06,.6-.52,2.69-2.23,5.95-2.86,.76-.15,2.3-.43,4.28-.1,1.11,.18,2.75,.46,4.33,1.69,2.08,1.63,2.73,3.93,2.95,5.03Z"/><path class="e" d="M397.55,25.6s0,.04-.01,.06c-.21,1.1-.6,1.86-.88,2.43-.65,1.29-1.54,2.34-2.19,2.91-.21,.19-.36,.32-.65,.58-.8,.72-.91,.85-1.03,1.01-.3,.4-.44,.77-.54,1.06-.05,.13-.28,.77-.31,1.61-.04,1.06,.24,1.99,.84,3.54,.84,2.16,.91,1.99,1.31,3.15,.27,.81,.49,1.46,.62,2.06,.09,.42,.16,1.04,.11,1.82-.01,.31-.07,.75-.23,1.25-.17,.53-.4,.87-.67,1.3-.26,.4-.59,.92-1.14,1.37-.03,.02-.31,.23-.73,.43-.2,.09-.48,.23-.56,.14-.04-.04-.08-.18,.39-.86,.72-1.03,1.08-1.06,1.36-1.56,.46-.83,.09-1.87-.22-2.72-.18-.51-.52-1.06-1.21-2.15-.17-.28-.08-.11-1.05-1.59-.76-1.17-1.15-1.75-1.22-1.89-.06-.11-.12-.21-.19-.32h0c-.13-.21-.26-.42-.37-.63-.03-.07-.06-.13-.09-.19h0c-.05-.11-.09-.2-.15-.27h0c-.83-1.49-1.26-2.25-1.47-2.85-.61-1.73-.34-3.28-.46-3.28-.05,0-.11,.35-.14,.72-.22,2.68,.97,5.15,1.29,5.57-.6,.42-1.79,.99-3.85,1.97-.31-1.32-1.09-3.51-3.11-5.13-1.71-1.37-3.49-1.66-4.7-1.87-2.15-.36-3.83-.05-4.65,.11-3.55,.7-5.82,2.59-6.47,3.16-.14,.13-.62,.55-1.17,1.17-.82,.92-2.87,3.27-3.51,6.8-.12,.66-.92,5.1,1.11,6.61,.17,.13,.84,.63,1.68,.56,.71-.05,1.06-.48,2.03-1.06,.68-.41,1.53-.81,2.13-.98-.03,.02-.07,.05-.1,.08-1.36,1.05-1.71,2.88-1.73,3.02-.17,.96-.02,1.71,.12,2.42,.17,.88,.46,1.53,.85,2.47,.15,.35,.41,.96,.82,1.72,.54,.98,.8,1.47,1.2,2.05,.41,.6,.78,1.03,.67,1.56-.01,.06-.02,.08-.2,.54-.14,.34-.27,.69-.41,1.03-.48,1.21-.75,2.41-.75,2.41-.09,.42-.22,.98-.27,1.69-.03,.48-.05,.72-.04,.98,.02,.47,.1,.72,0,.77-.1,.05-.29-.16-.68-.52-.5-.47-.38-.31-.9-.79-.49-.47-.88-.88-1.25-1.29-.3-.34-1.19-1.32-1.92-2.31-.58-.79-1.99-2.79-3.19-5.68-1.17-2.83-1.61-5.22-1.78-6.34-.46-3.02-.31-5.52-.12-7.08,.08-.7,.35-2.73,1.15-5.25,.53-1.66,1.11-2.92,1.43-3.59,.48-1,1.58-3.26,3.47-5.47,2.9-3.4,6.23-5.02,7.79-5.75,2.98-1.4,7.37-2.74,7.67-2.83,.42-.13,1.22-.36,2.28-.76,2.65-.99,4.23-1.98,4.62-2.23,.41-.26,.81-.55,1.16-.82l.02-.02c.14-.11,.27-.2,.38-.3,.32-.25,.55-.45,.61-.5,.04-.04,.29-.27,.64-.55,.5-.4,.8-.64,1.11-.78,.08-.04,.15-.07,.24-.09h0c.14-.04,.35-.09,.62-.09,.17,0,.36,.02,.57,.07,0,0,.07,.02,.18,.05,.2,.05,.53,.15,.82,.24,1.43,.46,2.36,1.09,2.36,1.09,.04,.03,.08,.06,.13,.09h.01c.26,.19,.63,.48,1.01,.9h0c.05,.06,.1,.12,.15,.18,.06,.07,.11,.14,.17,.21,.16,.21,.67,.9,1.01,1.95l.04,.12c.17,.58,.25,1.13,.27,1.61,.04,.76-.07,1.37-.13,1.74Z"/><path class="e" d="M389.34,39.23c-.13-.2-.26-.4-.37-.62-.03-.07-.06-.13-.09-.19,.14,.24,.27,.47,.42,.74l.04,.07Z"/><path class="e" d="M383.05,44.89c-.19,1.17-.75,3.96-3.79,9.58-1.76,3.27-2.28,3.62-3.22,5.99-.04,.09-.06,.15-.08,.22-.2,.02-.39,.01-.59,0h-.03c-1.6-.19-2.71-1.7-2.46-3.32v-.04c.28-1.84,.51-3.46,.08-4.79-.06-.88-.3-1.65-.88-2.32-.55-.64-1.36-1.11-2.21-1.34-.72-.2-1.48-.24-2.14-.07-.55,.14-1.36,.52-2.01,.9-.89,.53-1.21,.91-1.87,.95-.77,.06-1.39-.39-1.55-.51-1.87-1.37-1.13-5.38-1.02-5.97,.59-3.19,2.47-5.31,3.22-6.14,.51-.56,.95-.95,1.08-1.06,.6-.52,2.69-2.23,5.95-2.86,.76-.15,2.3-.43,4.28-.1,1.11,.18,2.75,.46,4.33,1.69,2.08,1.63,2.73,3.93,2.95,5.03,.04,.2,.07,.35,.08,.46,.09,.52,.22,1.62-.12,3.69Z"/><path class="e" d="M384.41,85.2c-.44,.35-2.28-1.3-2.55-1.56-1.75-1.59-2.28-2.68-3.79-4.46-.71-.84-1.39-1.48-2.73-2.77-4.94-4.73-6.2-4.5-6.79-6.34-.4-1.25,.32-3.28,1.77-7.34,1.25-3.51,1.95-4.39,2.35-6.99,.18-1.18,.33-2.25,.27-3.2-.06-.88-.3-1.65-.88-2.32-.55-.64-1.36-1.11-2.21-1.34-.72-.2-1.48-.24-2.14-.07-.55,.14-1.36,.52-2.01,.9-.89,.53-1.21,.91-1.87,.95-.77,.06-1.39-.39-1.55-.51-1.87-1.37-1.13-5.38-1.02-5.97,.59-3.19,2.47-5.31,3.22-6.14,.51-.56,.95-.95,1.08-1.06,.6-.52,2.69-2.23,5.95-2.86,.76-.15,2.3-.43,4.28-.1,1.11,.18,2.75,.46,4.33,1.69,2.08,1.63,2.73,3.93,2.95,5.03,.04,.2,.07,.35,.08,.46,.09,.52,.22,1.62-.12,3.69-.19,1.17-.75,3.96-3.79,9.58-1.76,3.27-2.28,3.62-3.22,5.99-.04,.09-.06,.15-.08,.22-.09,.26-.23,.76-1.38,4.23,0,0-.53,1.59-1.1,4.32-.22,1.05-.3,1.59-.08,2.2,.32,.91,1.04,1.27,2.14,2.02,.62,.42,2.66,1.82,4.21,3.6,.55,.63,1.39,1.6,2.09,3.04,.3,.63,.83,1.86,1.45,2.77,.43,.63,.64,.95,.71,1.02,.24,.24,.47,.41,.53,.72,.03,.17,.03,.47-.11,.58Z"/></g><g><path class="f" d="M29.28,38.98c3.26,2.24,5.87,5.12,7.82,8.64,1.95,3.52,2.86,7.33,2.74,11.42v11.42h-9.89v-11.42c0-1.92-.37-3.73-1.1-5.42-.74-1.7-1.74-3.18-3.02-4.46-1.28-1.28-2.78-2.29-4.51-3.02-1.73-.74-3.58-1.1-5.57-1.1h-5.95v25.44H0V9.98L9.79,0V34.94h3.74c1.92,0,3.73-.37,5.42-1.1,1.7-.74,3.18-1.73,4.46-2.98,1.28-1.25,2.29-2.74,3.02-4.46,.73-1.73,1.1-3.55,1.1-5.47h9.98c0,3.65-.75,7.02-2.26,10.13-1.5,3.11-3.5,5.75-6,7.92Z"/><path class="f" d="M67.3,70.46c-3.33,0-6.45-.64-9.36-1.92-2.91-1.28-5.46-3.01-7.63-5.18-2.18-2.18-3.89-4.72-5.14-7.63-1.25-2.91-1.87-6-1.87-9.26s.62-6.45,1.87-9.36c1.25-2.91,2.96-5.46,5.14-7.63,2.18-2.17,4.72-3.89,7.63-5.14,2.91-1.25,6.03-1.87,9.36-1.87s6.45,.62,9.36,1.87c2.91,1.25,5.46,2.96,7.63,5.14,2.17,2.18,3.89,4.72,5.14,7.63,1.25,2.91,1.87,6.03,1.87,9.36v24h-9.98v-24c0-1.98-.37-3.84-1.1-5.57-.74-1.73-1.74-3.23-3.02-4.51-1.28-1.28-2.77-2.29-4.46-3.02-1.7-.74-3.5-1.1-5.42-1.1s-3.73,.37-5.42,1.1c-1.7,.74-3.18,1.74-4.46,3.02-1.28,1.28-2.29,2.78-3.02,4.51-.74,1.73-1.1,3.58-1.1,5.57s.37,3.73,1.1,5.42c.73,1.7,1.74,3.18,3.02,4.46,1.28,1.28,2.77,2.29,4.46,3.02,1.69,.74,3.5,1.1,5.42,1.1,.64,0,1.23-.03,1.78-.1,.54-.06,1.1-.16,1.68-.29l2.3,9.7c-2.88,.45-4.8,.67-5.76,.67Z"/><path class="f" d="M144.86,70.46h-9.98v-24c0-1.92-.37-3.74-1.1-5.47-.74-1.73-1.74-3.22-3.02-4.46-1.28-1.25-2.77-2.24-4.46-2.98-1.7-.74-3.5-1.1-5.42-1.1s-3.73,.37-5.42,1.1c-1.7,.74-3.18,1.73-4.46,2.98-1.28,1.25-2.29,2.74-3.02,4.46-.74,1.73-1.1,3.55-1.1,5.47v24h-9.98v-24c-.06-3.26,.53-6.35,1.78-9.26,1.25-2.91,2.96-5.46,5.14-7.63s4.74-3.9,7.68-5.18c2.94-1.28,6.08-1.92,9.41-1.92s6.46,.64,9.41,1.92c2.94,1.28,5.5,3.01,7.68,5.18,2.17,2.18,3.89,4.72,5.14,7.63,1.25,2.91,1.84,6,1.78,9.26v24Z"/><path class="f" d="M194.88,36.96c.58,1.47,1.02,3.01,1.35,4.61,.32,1.6,.48,3.23,.48,4.9v29.66c0,3.52-.69,6.8-2.06,9.84-1.38,3.04-3.25,5.68-5.62,7.92l-7.39-6.82c1.6-1.34,2.88-2.96,3.84-4.85,.96-1.89,1.41-3.92,1.35-6.1l-.1-29.86c0-1.79-.38-3.61-1.15-5.47-.13-.38-.29-.75-.48-1.1-.19-.35-.42-.75-.67-1.2-1.28-1.92-2.96-3.44-5.04-4.56-2.08-1.12-4.37-1.68-6.86-1.68-1.92,0-3.71,.37-5.38,1.1-1.66,.74-3.13,1.74-4.42,3.02-1.28,1.28-2.29,2.77-3.02,4.46-.74,1.7-1.1,3.5-1.1,5.42s.37,3.74,1.1,5.47c.73,1.73,1.74,3.23,3.02,4.51,1.28,1.28,2.75,2.29,4.42,3.02,1.66,.74,3.46,1.1,5.38,1.1,.7,0,1.34-.01,1.92-.05,.58-.03,1.15-.14,1.73-.34l2.3,9.6c-.9,.32-1.84,.54-2.83,.67-.99,.13-2.03,.19-3.12,.19-3.01,0-5.87-.54-8.59-1.63-2.72-1.09-5.15-2.59-7.3-4.51-2.15-1.92-3.9-4.18-5.28-6.77-1.38-2.59-2.22-5.39-2.54-8.4-.13-.58-.19-1.09-.19-1.54v-1.34c0-3.33,.62-6.43,1.87-9.31s2.96-5.41,5.14-7.58,4.72-3.89,7.63-5.14c2.91-1.25,6-1.87,9.26-1.87,2.5,0,4.9,.35,7.2,1.06,2.3,.71,4.43,1.71,6.38,3.02,1.95,1.31,3.68,2.86,5.18,4.66,1.5,1.79,2.7,3.74,3.6,5.86Z"/><path class="f" d="M224.35,22.46c3.26,0,6.35,.62,9.26,1.87,2.91,1.25,5.46,2.96,7.63,5.14,2.18,2.18,3.9,4.72,5.18,7.63,1.28,2.91,1.92,6.03,1.92,9.36s-.64,6.45-1.92,9.36c-1.28,2.91-3.01,5.44-5.18,7.58-2.18,2.14-4.72,3.84-7.63,5.09-2.91,1.25-6,1.87-9.26,1.87s-6.45-.62-9.36-1.87c-2.91-1.25-5.44-2.94-7.58-5.09-2.14-2.14-3.84-4.67-5.09-7.58-1.25-2.91-1.87-6.03-1.87-9.36s.62-6.45,1.87-9.36c1.25-2.91,2.94-5.46,5.09-7.63,2.14-2.17,4.67-3.89,7.58-5.14,2.91-1.25,6.03-1.87,9.36-1.87Zm0,37.92c1.92,0,3.74-.37,5.47-1.1,1.73-.74,3.22-1.73,4.46-2.98,1.25-1.25,2.24-2.72,2.98-4.42,.74-1.7,1.1-3.5,1.1-5.42s-.37-3.74-1.1-5.47c-.74-1.73-1.73-3.22-2.98-4.46-1.25-1.25-2.74-2.24-4.46-2.98-1.73-.74-3.55-1.1-5.47-1.1s-3.74,.37-5.47,1.1c-1.73,.74-3.23,1.73-4.51,2.98-1.28,1.25-2.29,2.74-3.02,4.46-.74,1.73-1.1,3.55-1.1,5.47s.37,3.73,1.1,5.42c.73,1.7,1.74,3.17,3.02,4.42s2.78,2.24,4.51,2.98c1.73,.74,3.55,1.1,5.47,1.1Z"/><path class="f" d="M276.86,22.46c3.26,0,6.35,.62,9.26,1.87,2.91,1.25,5.46,2.96,7.63,5.14,2.18,2.18,3.9,4.72,5.18,7.63,1.28,2.91,1.92,6.03,1.92,9.36s-.64,6.45-1.92,9.36c-1.28,2.91-3.01,5.44-5.18,7.58-2.18,2.14-4.72,3.84-7.63,5.09-2.91,1.25-6,1.87-9.26,1.87s-6.45-.62-9.36-1.87c-2.91-1.25-5.44-2.94-7.58-5.09-2.14-2.14-3.84-4.67-5.09-7.58-1.25-2.91-1.87-6.03-1.87-9.36s.62-6.45,1.87-9.36c1.25-2.91,2.94-5.46,5.09-7.63,2.14-2.17,4.67-3.89,7.58-5.14,2.91-1.25,6.03-1.87,9.36-1.87Zm0,37.92c1.92,0,3.74-.37,5.47-1.1,1.73-.74,3.22-1.73,4.46-2.98,1.25-1.25,2.24-2.72,2.98-4.42,.74-1.7,1.1-3.5,1.1-5.42s-.37-3.74-1.1-5.47c-.74-1.73-1.73-3.22-2.98-4.46-1.25-1.25-2.74-2.24-4.46-2.98-1.73-.74-3.55-1.1-5.47-1.1s-3.74,.37-5.47,1.1c-1.73,.74-3.23,1.73-4.51,2.98-1.28,1.25-2.29,2.74-3.02,4.46-.74,1.73-1.1,3.55-1.1,5.47s.37,3.73,1.1,5.42c.73,1.7,1.74,3.17,3.02,4.42s2.78,2.24,4.51,2.98c1.73,.74,3.55,1.1,5.47,1.1Z"/><path class="f" d="M308.54,22.46h9.98v3.84c0,3.65-.71,7.01-2.11,10.08-1.41,3.07-3.33,5.73-5.76,7.97l-7.49-6.72v-.19c1.66-1.28,2.98-2.89,3.94-4.85,.96-1.95,1.44-4.05,1.44-6.29v-3.84Z"/></g></g></g></g></g></svg>