<?xml version="1.0" encoding="UTF-8"?><svg xmlns="http://www.w3.org/2000/svg" viewBox="0 0 595.28 595.28"><defs><style>.f{fill:#3c3c3b;}.g{fill:none;}.h{fill:#e7363c;}.i{fill:#c6c6c6;}</style></defs><g id="a"/><g id="b"><g id="c"><g id="d"><rect class="g" width="595.28" height="595.28"/></g><g id="e"><g><path class="f" d="M382.83,162.51c.75,.98,3.18,4.26,4.79,9.25-1.43-3.32-3.22-5.67-4.31-7.09-.97-1.25-6.03-7.61-14.14-10.75-.19-.08-2.76-1.07-5.38-1.86-1.53-.46-3.07-.85-4.16-.96,0,0-2.27-.23-3.92-.89-.58-.23-.83-.34-.94-.39-.05-.02-.07-.03-.07-.03-.16-.07-.34-.15-.54-.24,.01,0,.03-.01,.04-.01,.68-.2,1.66-.42,2.93-.42,.79,0,1.7,.09,2.71,.31,.03,.01,.35,.1,.85,.24,.94,.25,2.51,.69,3.9,1.13,6.8,2.16,11.2,5.18,11.2,5.18,.18,.12,.39,.27,.61,.42,.02,.02,.05,.04,.07,.05,2.61,1.75,4.1,3.35,4.81,4.22l.02,.02c.24,.26,.48,.53,.72,.82,.27,.32,.54,.65,.81,1Z"/><path class="f" d="M405.24,87.6c-2.63,4.12-4.4,6.89-7.8,9.58-7.99,6.32-15.79,4.89-16.33,8.1-.35,2.05,2.68,3.44,5.55,6.32,4.99,5.02,5.91,11.05,7.75,23.12,.56,3.74,2.01,14.18,.48,27.81-.1,.94-.22,1.91-.36,2.88-.8,5.76-2.11,11.73-3.18,14.41-.22-7.01-1.1-15-5.63-21.83h0c-5.36-8.06-13.73-11.4-21.55-14.51-4.34-1.73-8.15-2.69-10.93-3.26-.11-.03-.22-.05-.35-.07-2.5-.42-7.68,1.02-15.4,1-9.01,0-12.09-1.98-18.32,.26-1.89,.68-2.72,1.26-4.64,1.42-4.06,.33-9.17-1.54-12-5.94-.42-.64-3.16-5.03-1.81-9.54,1.64-5.5,7.75-5.9,16.65-10.71,14.86-8.05,27.12-22.8,33.54-21.94,1.59,.21,2.57,.27,4.52,.39,4.4,.26,5.22-.03,5.68-.26,1.95-.96,2.28-3.1,3.22-5.42,2.39-5.87,7.24-9.21,9.04-10.45,4.58-3.16,9-3.78,12.75-4.3,3.36-.47,8.44-1.18,9.95,1.2,1.08,1.7-.25,4.02,.91,4.78,.88,.57,1.92-.58,4.39-1.04,1.95-.36,5.34-.39,6.32,1.17,.36,.58,.71,1.88-2.45,6.83Z"/><path class="i" d="M341.31,154.87c-.47,.45-.96,.92-1.5,1.4,.64-3.15,3.2-5.81,6.74-7.28-.28,.38-.63,.84-1.04,1.35-.23,.28-.73,.89-1.4,1.66-.4,.44-1.38,1.53-2.8,2.87Z"/><path class="i" d="M366.17,157.81c0,2.76-1.46,5.26-3.83,7.08-2.4,1.85-5.74,2.99-9.43,2.99-6.26,0-11.5-3.29-12.88-7.72-.02-.02-.02-.05-.02-.07,.65-.5,1.26-.97,1.8-1.41,1.52-1.21,2.6-2.13,2.91-2.38,.21-.18,1.37-1.26,3.03-2.6,2.35-1.89,3.79-3.04,5.29-3.72,.36-.17,.73-.31,1.12-.43,.01,0,.03-.01,.04-.01,.68-.2,1.66-.42,2.93-.42,.79,0,1.7,.09,2.71,.31,.03,.01,.35,.1,.85,.24,.36,.19,.7,.4,1.03,.62,.78,.53,1.47,1.12,2.07,1.77,.25,.27,.48,.55,.69,.84,.43,.57,.78,1.18,1.06,1.82,.05,.15,.11,.29,.16,.44,.31,.85,.47,1.73,.47,2.65Z"/><path class="h" d="M222.91,198.96c-12.67,13.84-23.78,33.43-24.88,32.73-.8-.52,4.83-10.99,9.84-18.9,0,0,10.41-16.46,23.31-28.75,10.58-10.1,53.75-44.59,113.88-37.4,.96,.11,1.91,.24,2.86,.38-.21,.32-.46,.69-.75,1.1-.12,.17-.33,.47-.62,.87-.28,.38-.63,.84-1.04,1.35-.23,.28-.73,.89-1.4,1.66-.4,.44-1.38,1.53-2.8,2.87-.47,.45-.96,.92-1.5,1.4h0c-.59,.53-1.24,1.08-2.02,1.66-49.3-8.27-92.85,16.98-114.88,41.03Z"/><path class="h" d="M345.84,159.58c-1.32-.32-2.67-.62-4.03-.9,1.52-1.21,2.6-2.13,2.91-2.38,.21-.18,1.37-1.26,3.03-2.6,2.35-1.89,3.79-3.04,5.29-3.72,.36-.17,.73-.31,1.12-.43,.01,0,.03-.01,.04-.01,.68-.2,1.66-.42,2.93-.42,.79,0,1.7,.09,2.71,.31,.03,.01,.35,.1,.85,.24,.94,.25,2.51,.69,3.9,1.13,6.8,2.16,11.2,5.18,11.2,5.18,.18,.12,.39,.27,.61,.42,.02,.02,.05,.04,.07,.05,2.61,1.75,4.1,3.35,4.81,4.22l.02,.02c.24,.26,.48,.53,.72,.82,.27,.32,.54,.65,.81,1,.75,.98,3.18,4.26,4.79,9.25l.18,.57c.83,2.76,1.2,5.35,1.29,7.65-1.71-1.26-3.48-2.51-5.33-3.75-6.31-4.18-13.44-8.11-21.42-11.34-5.15-2.1-10.65-3.9-16.5-5.31Z"/><path class="h" d="M470.11,288.51c-.05,6.75-.97,47.94-29.07,84.91-7.35,9.65-14.98,16.97-20.83,21.95-9.3,7.91-23.96,18.31-44.02,25.5-10.86,3.89-20.47,5.82-27.7,6.85-6.84,.95-12.67,1.29-17.19,1.39,0,0-5.72,.11-11.92-.26-.3-.01-.97-.05-1.79-.11-.82-.06-1.79-.14-2.67-.24-.71-.06-1.8-.17-3.17-.33-4.34-.51-6.51-.76-7.64-1.21-1.62-.63-2.33-1.41-4.81-3.74-3.82-3.6-5.74-5.4-7.74-6.97-2.66-2.08-10.83-7.93-12.68-9.63-.33-.3-.82-.8-.97-1.55-.08-.43,0-.74,.1-1.45,.11-.72,.14-1.45,.24-2.18,.25-1.81,.33-3.57,.39-4.3,.33-4.24,1.1-14.33,4.4-15.21,1.73-.47,2.91,2.03,8.26,6.45,3.05,2.52,5.83,4.33,7.86,5.53,3.27,1.51,8.27,3.45,14.59,4.54,12.75,2.21,22.81-.45,34.32-3.62,16.3-4.49,27.64-10.92,30.41-12.53,15.62-9.06,25.53-19.43,29.85-24.32,3.8-4.28,12.37-14.58,19.44-30.01,9.14-19.96,10.69-37.42,11.06-44.1,2.07-37.32-14.61-64.88-18.81-71.45-1.91-2.99-11.34-17.28-28.63-30.7-.01-.62-.03-1.26-.04-1.9-.22-7.01-1.1-15-5.63-21.83,3.13,1.4,6.19,2.92,9.17,4.54,28.4,15.4,49.98,39.62,62.14,65.31,3.36,7.09,13.35,29.84,13.08,60.67Z"/><path class="i" d="M388.45,188.26c-1.18-.4-2.55-1.1-3.79-2.27-.76-.71-3.49-3.28-3.1-6.26,.21-1.62,1.26-2.64,2.2-3.5,.95-.86,1.78-1.56,1.61-2.56-.38-2.11-4.6-1.67-6.39-5.1-.83-1.59,.04-1.77-.84-4.26-.74-2.09-2.06-3.63-4.71-6.71-1.08-1.26-1.64-1.8-2.39-2.32-.37-.26-3.19-2.23-4.58-1.29-.43,.29-.64,.8-.76,1.17-.1,.27-.15,.46-.21,.44-.09-.02-.01-.4,.05-.88,.07-.61,.1-1.37-.3-1.7-.2-.16-.47-.18-.76-.12-.47,.09-1.01,.35-1.5,.51-1.3,.43-3.31,.46-6.39-1.29-.73,.75-1.75,1.52-2.97,1.52-1.01-.01-1.48-.55-1.96-.26-.98,.57,.24,3.14-.91,4.09-.23,.19-.33,.14-2.61,.33-1.99,.16-2.45,.24-2.61,.58-.18,.36,.1,.81,.31,1.2,.13,.27,.23,.51,.11,.67-.2,.24-.68-.02-1.94-.1-.27-.02-.31,0-1.45,0-.45,.01-.83,.01-1.15,.01h-1.4s-.07,0-.11,.01c.04-.03,.08-.06,.11-.08,.65-.5,1.26-.97,1.8-1.41,1.52-1.21,2.6-2.13,2.91-2.38,.21-.18,1.37-1.26,3.03-2.6,2.35-1.89,3.79-3.04,5.29-3.72,.36-.17,.73-.31,1.12-.43,.01,0,.03-.01,.04-.01,.68-.2,1.66-.42,2.93-.42,.79,0,1.7,.09,2.71,.31,.03,.01,.35,.1,.85,.24,.94,.25,2.51,.69,3.9,1.13,6.8,2.16,11.2,5.18,11.2,5.18,.18,.12,.39,.27,.61,.42,.02,.02,.05,.04,.07,.05,2.61,1.75,4.1,3.35,4.81,4.22l.02,.02c.24,.26,.48,.53,.72,.82,.27,.32,.54,.65,.81,1,.75,.98,3.18,4.26,4.79,9.25l.18,.57c.83,2.76,1.2,5.35,1.29,7.65,.17,3.6-.31,6.5-.64,8.28Z"/><path class="i" d="M375.79,155.98c.18,.12,.39,.27,.61,.42-.54-.35-1.13-.72-1.77-1.08-.67-.38-1.4-.76-1.4-.76-.16-.09-.33-.17-.51-.27-.62-.31-1.93-.95-4.64-2-1.62-.63-2.43-.94-3.29-1.22-1.07-.34-2.11-.59-3.07-.78-2.47-.47-4.47-.52-5.48-.52-.29,.01-.79,.01-1.47,.05-.49,.03-1.07,.08-1.73,.16,.36-.17,.73-.31,1.12-.43,.01,0,.03-.01,.04-.01,.68-.2,1.66-.42,2.93-.42,.79,0,1.7,.09,2.71,.31,.03,.01,.35,.1,.85,.24,.94,.25,2.51,.69,3.9,1.13,6.8,2.16,11.2,5.18,11.2,5.18Z"/><path class="i" d="M381.3,160.69c.24,.26,.48,.53,.72,.82l-.23-.14s-.16-.26-.49-.68Z"/><path class="h" d="M319.81,260.08c-2.03,.84-3.54,1.33-5.48,2.09-14.34,5.64-46.8,32.98-57.34,36.52-3.43-.97-7.01-1.13-10.14-.31-2.62,.68-6.44,2.45-9.52,4.27-4.24,2.5-5.76,4.3-8.87,4.53-3.67,.28-6.61-1.87-7.35-2.41-8.87-6.5-5.38-25.51-4.85-28.34,2.78-15.16,11.71-25.21,15.3-29.15,2.44-2.68,4.5-4.49,5.13-5.03,2.85-2.47,12.76-10.57,28.26-13.55,3.59-.69,10.93-2.04,20.32-.48,5.28,.87,13.07,2.16,20.53,8.01,9.88,7.75,12.95,18.63,14.01,23.85Z"/><path class="f" d="M388.45,188.26c-.01,.1-.03,.2-.05,.3-.98,5.2-2.83,8.84-4.2,11.54-3.1,6.13-7.29,11.09-10.38,13.81-1,.88-1.7,1.51-3.1,2.77-3.78,3.42-4.34,4.03-4.9,4.78-1.43,1.9-2.07,3.64-2.58,5.01-.22,.6-1.32,3.66-1.49,7.63-.21,5.02,1.16,9.44,4,16.78,3.97,10.26,4.34,9.46,6.2,14.97,1.3,3.85,2.33,6.91,2.96,9.79,.43,1.99,.75,4.95,.52,8.66-.07,1.47-.31,3.56-1.1,5.93-.83,2.51-1.88,4.15-3.18,6.18-1.23,1.92-2.82,4.37-5.43,6.49-.13,.1-1.48,1.1-3.45,2.04-.93,.45-2.26,1.07-2.65,.65-.18-.2-.37-.85,1.87-4.07,3.42-4.89,5.14-5.02,6.46-7.42,2.17-3.95,.41-8.87-1.04-12.9-.87-2.43-2.49-5.02-5.74-10.19-.82-1.32-.36-.53-4.96-7.55-3.63-5.53-5.45-8.3-5.81-8.97-.28-.51-.59-1.02-.91-1.51-.01-.02-.02-.03-.03-.05-.61-.96-1.25-1.92-1.74-2.95-.14-.31-.28-.6-.41-.88-.01-.01-.02-.03-.02-.05-.23-.49-.45-.92-.71-1.25,0,0,0-.01-.01-.01-3.96-7.06-5.97-10.68-6.98-13.52-2.91-8.2-1.62-15.58-2.16-15.59-.26,0-.53,1.64-.68,3.44-1.06,12.73,4.59,24.46,6.14,26.42-2.86,2-8.5,4.71-18.29,9.35-1.49-6.26-5.18-16.67-14.77-24.33-8.11-6.48-16.57-7.9-22.31-8.87-10.21-1.72-18.19-.23-22.09,.54-16.85,3.3-27.62,12.27-30.72,15-.68,.6-2.92,2.6-5.57,5.57-3.9,4.36-13.61,15.5-16.64,32.28-.56,3.14-4.37,24.19,5.28,31.38,.8,.6,3.99,2.98,7.99,2.68,3.38-.26,5.03-2.26,9.64-5.03,3.25-1.95,7.26-3.86,10.1-4.65-.16,.11-.31,.23-.48,.36-6.47,4.99-8.11,13.69-8.22,14.35-.8,4.55-.09,8.12,.58,11.47,.83,4.16,2.16,7.28,4.04,11.72,.71,1.67,1.94,4.55,3.9,8.16,2.54,4.67,3.8,7,5.68,9.71,1.95,2.83,3.68,4.9,3.19,7.39-.05,.28-.1,.37-.96,2.55-.65,1.63-1.28,3.27-1.94,4.9-2.3,5.72-3.58,11.42-3.58,11.42-.45,2-1.04,4.66-1.27,8-.16,2.28-.24,3.42-.18,4.65,.11,2.23,.46,3.4,0,3.64-.48,.25-1.37-.74-3.23-2.48-2.39-2.25-1.82-1.45-4.26-3.74-2.33-2.21-4.2-4.2-5.93-6.13-1.43-1.59-5.64-6.25-9.13-10.97-2.77-3.76-9.44-13.24-15.13-26.97-5.57-13.44-7.63-24.75-8.44-30.09-2.17-14.35-1.45-26.21-.59-33.59,.39-3.34,1.64-12.95,5.48-24.9,2.53-7.88,5.25-13.86,6.78-17.03,2.29-4.76,7.51-15.47,16.45-25.94,13.76-16.12,29.59-23.81,36.97-27.29,14.14-6.66,34.96-12.99,36.38-13.42,2.01-.6,5.78-1.71,10.84-3.61,12.59-4.72,20.06-9.38,21.94-10.58,1.94-1.24,3.85-2.62,5.5-3.87,.04-.03,.08-.06,.11-.08,.65-.5,1.26-.97,1.8-1.41,1.52-1.21,2.6-2.13,2.91-2.38,.21-.18,1.37-1.26,3.03-2.6,2.35-1.89,3.79-3.04,5.29-3.72,.36-.17,.73-.31,1.12-.43,.01,0,.03-.01,.04-.01,.68-.2,1.66-.42,2.93-.42,.79,0,1.7,.09,2.71,.31,.03,.01,.35,.1,.85,.24,.94,.25,2.51,.69,3.9,1.13,6.8,2.16,11.2,5.18,11.2,5.18,.18,.12,.39,.27,.61,.42,.02,.02,.05,.04,.07,.05,1.22,.87,2.98,2.22,4.81,4.22l.02,.02c.24,.26,.48,.53,.72,.82,.27,.32,.54,.65,.81,1,.75,.98,3.18,4.26,4.79,9.25l.18,.57c.83,2.76,1.2,5.35,1.29,7.65,.17,3.6-.31,6.5-.64,8.28Z"/><path class="i" d="M349.46,252.93c-.61-.96-1.25-1.92-1.74-2.95-.14-.31-.28-.6-.41-.88,.65,1.13,1.3,2.24,1.97,3.5l.18,.33Z"/><path class="i" d="M319.62,279.8c-.91,5.53-3.58,18.78-18,45.48-8.36,15.5-10.83,17.17-15.29,28.45-.17,.45-.27,.7-.39,1.04-.93,.09-1.87,.07-2.82-.04h-.15c-7.57-.92-12.84-8.06-11.68-15.74,.01-.05,.02-.11,.03-.17,1.3-8.73,2.37-16.4,.33-22.75-.28-4.17-1.44-7.85-4.19-11.01-2.63-3.02-6.45-5.25-10.47-6.37-3.43-.97-7.01-1.13-10.14-.31-2.62,.68-6.44,2.45-9.52,4.27-4.24,2.5-5.76,4.3-8.87,4.53-3.67,.28-6.61-1.87-7.35-2.41-8.87-6.5-5.38-25.51-4.85-28.34,2.78-15.16,11.71-25.21,15.3-29.15,2.44-2.68,4.5-4.49,5.13-5.03,2.85-2.47,12.76-10.57,28.26-13.55,3.59-.69,10.93-2.04,20.32-.48,5.28,.87,13.07,2.16,20.53,8.01,9.88,7.75,12.95,18.63,14.01,23.85,.18,.93,.31,1.68,.39,2.2,.41,2.46,1.05,7.69-.58,17.52Z"/><path class="f" d="M326.09,471.1c-2.11,1.64-10.8-6.19-12.11-7.38-8.3-7.54-10.8-12.72-17.97-21.15-3.39-3.98-6.58-7.04-12.97-13.16-23.43-22.46-29.41-21.35-32.22-30.1-1.92-5.95,1.52-15.58,8.42-34.84,5.95-16.64,9.24-20.83,11.13-33.19,.85-5.58,1.58-10.68,1.28-15.21-.28-4.17-1.44-7.85-4.19-11.01-2.63-3.02-6.45-5.25-10.47-6.37-3.43-.97-7.01-1.13-10.14-.31-2.62,.68-6.44,2.45-9.52,4.27-4.24,2.5-5.76,4.3-8.87,4.53-3.67,.28-6.61-1.87-7.35-2.41-8.87-6.5-5.38-25.51-4.85-28.34,2.78-15.16,11.71-25.21,15.3-29.15,2.44-2.68,4.5-4.49,5.13-5.03,2.85-2.47,12.76-10.57,28.26-13.55,3.59-.69,10.93-2.04,20.32-.48,5.28,.87,13.07,2.16,20.53,8.01,9.88,7.75,12.95,18.63,14.01,23.85,.18,.93,.31,1.68,.39,2.2,.41,2.46,1.05,7.69-.58,17.52-.91,5.53-3.58,18.78-18,45.48-8.36,15.5-10.83,17.17-15.29,28.45-.17,.45-.27,.7-.39,1.04-.42,1.23-1.1,3.62-6.57,20.09,0,0-2.51,7.53-5.23,20.49-1.04,4.96-1.42,7.53-.39,10.45,1.52,4.3,4.92,6.01,10.16,9.58,2.93,1.99,12.61,8.64,19.98,17.1,2.59,2.97,6.61,7.58,9.93,14.45,1.44,2.97,3.93,8.83,6.87,13.16,2.04,3,3.06,4.5,3.38,4.84,1.14,1.15,2.22,1.93,2.52,3.42,.16,.83,.15,2.24-.5,2.75Z"/></g><g><path class="h" d="M112.56,479.84c2.45,1.68,4.4,3.84,5.87,6.48,1.46,2.64,2.15,5.5,2.05,8.57v8.57h-7.42v-8.57c0-1.44-.28-2.79-.83-4.07-.55-1.27-1.31-2.39-2.27-3.35-.96-.96-2.09-1.71-3.38-2.27-1.3-.55-2.69-.83-4.18-.83h-4.46v19.08h-7.34v-45.36l7.34-7.49v26.21h2.81c1.44,0,2.8-.28,4.07-.83,1.27-.55,2.39-1.3,3.35-2.23,.96-.94,1.72-2.05,2.27-3.35,.55-1.3,.83-2.66,.83-4.1h7.49c0,2.74-.56,5.27-1.69,7.6-1.13,2.33-2.63,4.31-4.5,5.94Z"/><path class="h" d="M141.07,503.45c-2.5,0-4.84-.48-7.02-1.44-2.19-.96-4.09-2.25-5.72-3.89-1.63-1.63-2.92-3.54-3.85-5.72-.94-2.18-1.4-4.5-1.4-6.95s.47-4.83,1.4-7.02,2.22-4.09,3.85-5.72c1.63-1.63,3.54-2.92,5.72-3.85,2.18-.94,4.52-1.4,7.02-1.4s4.84,.47,7.02,1.4c2.18,.94,4.09,2.22,5.72,3.85,1.63,1.63,2.92,3.54,3.85,5.72s1.4,4.52,1.4,7.02v18h-7.49v-18c0-1.49-.28-2.88-.83-4.18-.55-1.3-1.31-2.42-2.27-3.38-.96-.96-2.08-1.72-3.35-2.27-1.27-.55-2.63-.83-4.07-.83s-2.8,.28-4.07,.83c-1.27,.55-2.39,1.31-3.35,2.27-.96,.96-1.72,2.09-2.27,3.38-.55,1.3-.83,2.69-.83,4.18s.28,2.8,.83,4.07c.55,1.27,1.31,2.39,2.27,3.35,.96,.96,2.08,1.72,3.35,2.27,1.27,.55,2.63,.83,4.07,.83,.48,0,.92-.02,1.33-.07,.41-.05,.83-.12,1.26-.22l1.73,7.27c-2.16,.34-3.6,.5-4.32,.5Z"/><path class="h" d="M199.24,503.45h-7.49v-18c0-1.44-.28-2.81-.83-4.1-.55-1.3-1.31-2.41-2.27-3.35-.96-.94-2.08-1.68-3.35-2.23-1.27-.55-2.63-.83-4.07-.83s-2.8,.28-4.07,.83c-1.27,.55-2.39,1.3-3.35,2.23-.96,.94-1.72,2.05-2.27,3.35-.55,1.3-.83,2.66-.83,4.1v18h-7.49v-18c-.05-2.45,.4-4.76,1.33-6.95,.94-2.18,2.22-4.09,3.85-5.72,1.63-1.63,3.55-2.93,5.76-3.89,2.21-.96,4.56-1.44,7.06-1.44s4.85,.48,7.06,1.44c2.21,.96,4.13,2.26,5.76,3.89,1.63,1.63,2.92,3.54,3.85,5.72,.94,2.18,1.38,4.5,1.33,6.95v18Z"/><path class="h" d="M236.75,478.33c.43,1.1,.77,2.26,1.01,3.46,.24,1.2,.36,2.42,.36,3.67v22.25c0,2.64-.52,5.1-1.55,7.38-1.03,2.28-2.44,4.26-4.21,5.94l-5.54-5.11c1.2-1.01,2.16-2.22,2.88-3.64,.72-1.42,1.06-2.94,1.01-4.57l-.07-22.39c0-1.34-.29-2.71-.86-4.1-.1-.29-.22-.56-.36-.83-.14-.26-.31-.56-.5-.9-.96-1.44-2.22-2.58-3.78-3.42-1.56-.84-3.28-1.26-5.15-1.26-1.44,0-2.78,.28-4.03,.83-1.25,.55-2.35,1.31-3.31,2.27-.96,.96-1.72,2.08-2.27,3.35-.55,1.27-.83,2.63-.83,4.07s.28,2.81,.83,4.1c.55,1.3,1.31,2.42,2.27,3.38,.96,.96,2.06,1.72,3.31,2.27,1.25,.55,2.59,.83,4.03,.83,.53,0,1.01-.01,1.44-.04,.43-.02,.86-.11,1.3-.25l1.73,7.2c-.67,.24-1.38,.41-2.12,.5-.74,.1-1.52,.14-2.34,.14-2.26,0-4.4-.41-6.44-1.22-2.04-.82-3.86-1.94-5.47-3.38-1.61-1.44-2.93-3.13-3.96-5.08-1.03-1.94-1.67-4.04-1.91-6.3-.1-.43-.14-.82-.14-1.15v-1.01c0-2.5,.47-4.82,1.4-6.98,.94-2.16,2.22-4.06,3.85-5.69,1.63-1.63,3.54-2.92,5.72-3.85,2.18-.94,4.5-1.4,6.95-1.4,1.87,0,3.67,.26,5.4,.79,1.73,.53,3.32,1.29,4.79,2.27,1.46,.98,2.76,2.15,3.89,3.49,1.13,1.34,2.03,2.81,2.7,4.39Z"/><path class="h" d="M258.86,467.45c2.45,0,4.76,.47,6.95,1.4,2.18,.94,4.09,2.22,5.72,3.85,1.63,1.63,2.93,3.54,3.89,5.72,.96,2.18,1.44,4.52,1.44,7.02s-.48,4.84-1.44,7.02c-.96,2.19-2.26,4.08-3.89,5.69-1.63,1.61-3.54,2.88-5.72,3.82-2.18,.94-4.5,1.4-6.95,1.4s-4.84-.47-7.02-1.4c-2.19-.94-4.08-2.21-5.69-3.82-1.61-1.61-2.88-3.5-3.82-5.69-.94-2.18-1.4-4.52-1.4-7.02s.47-4.83,1.4-7.02,2.21-4.09,3.82-5.72c1.61-1.63,3.5-2.92,5.69-3.85,2.18-.94,4.52-1.4,7.02-1.4Zm0,28.44c1.44,0,2.81-.28,4.1-.83s2.41-1.3,3.35-2.23,1.68-2.04,2.23-3.31c.55-1.27,.83-2.63,.83-4.07s-.28-2.81-.83-4.1c-.55-1.3-1.3-2.41-2.23-3.35-.94-.94-2.05-1.68-3.35-2.23s-2.66-.83-4.1-.83-2.81,.28-4.1,.83-2.42,1.3-3.38,2.23c-.96,.94-1.72,2.05-2.27,3.35-.55,1.3-.83,2.66-.83,4.1s.28,2.8,.83,4.07c.55,1.27,1.31,2.38,2.27,3.31,.96,.94,2.09,1.68,3.38,2.23s2.66,.83,4.1,.83Z"/><path class="h" d="M298.24,467.45c2.45,0,4.76,.47,6.95,1.4,2.18,.94,4.09,2.22,5.72,3.85,1.63,1.63,2.93,3.54,3.89,5.72,.96,2.18,1.44,4.52,1.44,7.02s-.48,4.84-1.44,7.02c-.96,2.19-2.26,4.08-3.89,5.69-1.63,1.61-3.54,2.88-5.72,3.82-2.18,.94-4.5,1.4-6.95,1.4s-4.84-.47-7.02-1.4c-2.18-.94-4.08-2.21-5.69-3.82-1.61-1.61-2.88-3.5-3.82-5.69-.94-2.18-1.4-4.52-1.4-7.02s.47-4.83,1.4-7.02c.94-2.18,2.21-4.09,3.82-5.72,1.61-1.63,3.5-2.92,5.69-3.85,2.18-.94,4.52-1.4,7.02-1.4Zm0,28.44c1.44,0,2.81-.28,4.1-.83s2.41-1.3,3.35-2.23,1.68-2.04,2.23-3.31c.55-1.27,.83-2.63,.83-4.07s-.28-2.81-.83-4.1c-.55-1.3-1.3-2.41-2.23-3.35-.94-.94-2.05-1.68-3.35-2.23s-2.66-.83-4.1-.83-2.81,.28-4.1,.83-2.42,1.3-3.38,2.23c-.96,.94-1.72,2.05-2.27,3.35-.55,1.3-.83,2.66-.83,4.1s.28,2.8,.83,4.07c.55,1.27,1.31,2.38,2.27,3.31,.96,.94,2.09,1.68,3.38,2.23s2.66,.83,4.1,.83Z"/></g><g><path class="f" d="M331.95,485.45c-.05-2.45,.4-4.76,1.33-6.95,.94-2.18,2.22-4.09,3.85-5.72,1.63-1.63,3.55-2.93,5.76-3.89,2.21-.96,4.56-1.44,7.06-1.44v7.49c-1.44,0-2.8,.28-4.07,.83-1.27,.55-2.39,1.3-3.35,2.23-.96,.94-1.72,2.05-2.27,3.35-.55,1.3-.83,2.66-.83,4.1v18h-7.49v-18Z"/><path class="f" d="M370.18,467.45c2.45,0,4.76,.47,6.95,1.4,2.18,.94,4.09,2.22,5.72,3.85,1.63,1.63,2.93,3.54,3.89,5.72,.96,2.18,1.44,4.52,1.44,7.02s-.48,4.84-1.44,7.02c-.96,2.19-2.26,4.08-3.89,5.69-1.63,1.61-3.54,2.88-5.72,3.82-2.18,.94-4.5,1.4-6.95,1.4s-4.84-.47-7.02-1.4c-2.18-.94-4.08-2.21-5.69-3.82-1.61-1.61-2.88-3.5-3.82-5.69-.94-2.18-1.4-4.52-1.4-7.02s.47-4.83,1.4-7.02c.94-2.18,2.21-4.09,3.82-5.72,1.61-1.63,3.5-2.92,5.69-3.85,2.18-.94,4.52-1.4,7.02-1.4Zm0,28.44c1.44,0,2.81-.28,4.1-.83s2.41-1.3,3.35-2.23,1.68-2.04,2.23-3.31c.55-1.27,.83-2.63,.83-4.07s-.28-2.81-.83-4.1c-.55-1.3-1.3-2.41-2.23-3.35-.94-.94-2.05-1.68-3.35-2.23s-2.66-.83-4.1-.83-2.81,.28-4.1,.83-2.42,1.3-3.38,2.23c-.96,.94-1.72,2.05-2.27,3.35-.55,1.3-.83,2.66-.83,4.1s.28,2.8,.83,4.07c.55,1.27,1.31,2.38,2.27,3.31,.96,.94,2.09,1.68,3.38,2.23s2.66,.83,4.1,.83Z"/><path class="f" d="M427.93,485.45c.05,2.45-.4,4.76-1.33,6.95-.94,2.18-2.22,4.08-3.85,5.69-1.63,1.61-3.54,2.89-5.72,3.85-2.19,.96-4.5,1.46-6.95,1.51h-.14c-2.45-.05-4.76-.55-6.95-1.51-2.19-.96-4.09-2.24-5.72-3.85-1.63-1.61-2.92-3.5-3.85-5.69-.94-2.18-1.38-4.5-1.33-6.95v-18h7.56l-.07,18c0,1.44,.26,2.8,.79,4.07,.53,1.27,1.26,2.39,2.2,3.35,.94,.96,2.04,1.72,3.31,2.27,1.27,.55,2.63,.83,4.07,.83s2.87-.28,4.14-.83c1.27-.55,2.38-1.31,3.31-2.27,.94-.96,1.68-2.08,2.23-3.35,.55-1.27,.83-2.63,.83-4.07v-18h7.49v18Z"/><path class="f" d="M465.37,478.33c.43,1.1,.77,2.26,1.01,3.46,.24,1.2,.36,2.42,.36,3.67v22.25c0,2.64-.52,5.1-1.55,7.38-1.03,2.28-2.44,4.26-4.21,5.94l-5.54-5.11c1.2-1.01,2.16-2.22,2.88-3.64,.72-1.42,1.06-2.94,1.01-4.57l-.07-22.39c0-1.34-.29-2.71-.86-4.1-.1-.29-.22-.56-.36-.83-.14-.26-.31-.56-.5-.9-.96-1.44-2.22-2.58-3.78-3.42-1.56-.84-3.28-1.26-5.15-1.26-1.44,0-2.78,.28-4.03,.83-1.25,.55-2.35,1.31-3.31,2.27-.96,.96-1.72,2.08-2.27,3.35-.55,1.27-.83,2.63-.83,4.07s.28,2.81,.83,4.1,1.31,2.42,2.27,3.38c.96,.96,2.06,1.72,3.31,2.27,1.25,.55,2.59,.83,4.03,.83,.53,0,1.01-.01,1.44-.04,.43-.02,.86-.11,1.3-.25l1.73,7.2c-.67,.24-1.38,.41-2.12,.5-.75,.1-1.52,.14-2.34,.14-2.26,0-4.4-.41-6.44-1.22-2.04-.82-3.86-1.94-5.47-3.38-1.61-1.44-2.93-3.13-3.96-5.08-1.03-1.94-1.67-4.04-1.91-6.3-.1-.43-.14-.82-.14-1.15v-1.01c0-2.5,.47-4.82,1.4-6.98,.94-2.16,2.22-4.06,3.85-5.69s3.54-2.92,5.72-3.85c2.18-.94,4.5-1.4,6.95-1.4,1.87,0,3.67,.26,5.4,.79,1.73,.53,3.32,1.29,4.79,2.27,1.46,.98,2.76,2.15,3.89,3.49,1.13,1.34,2.03,2.81,2.7,4.39Z"/><path class="f" d="M487.62,495.97c1.44,0,2.8-.28,4.07-.83,1.27-.55,2.39-1.3,3.35-2.23,.96-.94,1.72-2.04,2.27-3.31,.55-1.27,.83-2.65,.83-4.14h7.49c0,2.5-.47,4.84-1.4,7.02-.94,2.19-2.22,4.09-3.85,5.72-1.63,1.63-3.54,2.92-5.72,3.85-2.19,.94-4.53,1.4-7.02,1.4s-4.84-.47-7.02-1.4c-2.18-.94-4.09-2.22-5.72-3.85s-2.92-3.54-3.85-5.72c-.94-2.18-1.4-4.52-1.4-7.02s.47-4.83,1.4-7.02c.94-2.18,2.22-4.09,3.85-5.72,1.63-1.63,3.54-2.92,5.72-3.85,2.18-.94,4.52-1.4,7.02-1.4s4.73,.44,6.84,1.33c2.11,.89,3.98,2.1,5.62,3.64l.14,.14,4.9,5.04-8.06,7.99h-9.94l7.7-7.92c-.91-.82-1.99-1.48-3.24-1.98s-2.57-.76-3.96-.76-2.8,.28-4.07,.83c-1.27,.55-2.39,1.31-3.35,2.27s-1.72,2.08-2.27,3.35c-.55,1.27-.83,2.63-.83,4.07s.28,2.8,.83,4.07c.55,1.27,1.31,2.39,2.27,3.35,.96,.96,2.08,1.72,3.35,2.27,1.27,.55,2.63,.83,4.07,.83Z"/></g></g></g></g></svg>