<?xml version="1.0" encoding="UTF-8"?><svg id="a" xmlns="http://www.w3.org/2000/svg" viewBox="0 0 200 200"><defs><style>.b{fill:#d5d5d5;}.c{fill:none;}</style></defs><path class="b" d="M79.79,157.59c48.84,0,75.55-40.46,75.55-75.55,0-1.15-.02-2.29-.08-3.43,5.18-3.75,9.69-8.42,13.25-13.75-4.76,2.11-9.88,3.54-15.25,4.18,5.48-3.29,9.69-8.49,11.68-14.69-5.13,3.04-10.81,5.25-16.86,6.45-4.85-5.16-11.75-8.39-19.38-8.39-14.67,0-26.56,11.89-26.56,26.55,0,2.08,.23,4.11,.69,6.05-22.07-1.11-41.64-11.68-54.73-27.74-2.28,3.92-3.6,8.48-3.6,13.35,0,9.21,4.69,17.35,11.82,22.1-4.36-.13-8.45-1.33-12.03-3.32,0,.11,0,.22,0,.34,0,12.86,9.15,23.6,21.3,26.03-2.23,.61-4.58,.93-7,.93-1.71,0-3.37-.17-4.99-.48,3.38,10.55,13.18,18.23,24.81,18.44-9.09,7.12-20.54,11.37-32.98,11.37-2.14,0-4.26-.12-6.33-.37,11.75,7.53,25.71,11.93,40.7,11.93"/><rect class="c" x="0" width="200" height="200"/></svg>