<?xml version="1.0" encoding="UTF-8"?><svg id="a" xmlns="http://www.w3.org/2000/svg" viewBox="0 0 200 200"><defs><style>.b{fill:#d5d5d5;}.c{fill:none;}</style></defs><path class="b" d="M163.14,67.91c-1.53-5.74-6.05-10.25-11.79-11.79-10.4-2.79-52.09-2.79-52.09-2.79,0,0-41.69,0-52.09,2.79-5.74,1.53-10.25,6.05-11.79,11.79-2.79,10.4-2.79,32.09-2.79,32.09,0,0,0,21.69,2.79,32.09,1.53,5.74,6.05,10.25,11.79,11.79,10.4,2.79,52.09,2.79,52.09,2.79,0,0,41.69,0,52.09-2.79,5.74-1.53,10.25-6.05,11.79-11.79,2.79-10.4,2.79-32.09,2.79-32.09,0,0,0-21.69-2.79-32.09Zm-77.21,52.09v-40l34.64,20-34.64,20Z"/><rect class="c" width="200" height="200"/></svg>